<svg x="0" y="0" width="1200" height="600" viewBox="0 0 1200 600" xmlns="http://www.w3.org/2000/svg" xmlns:xlink="http://www.w3.org/1999/xlink" xmlns:fi="http://pattern.flaticon.com/"><rect x="0px" y="0px" width="100%" height="100%" opacity="1" fill="#b8b8b8"/><defs><g transform="matrix(-0.04304564371705055 -0.0947004184126854 0.0947004184126854 -0.04304564371705055 123.77637481689453 166.2629852294922)" id="L1_0"><path d="M343.495,285.792c14.366-9.953,27.601-19.937,39.64-29.792c-12.039-9.855-25.274-19.839-39.64-29.792   C343.827,235.848,344,245.778,344,256S343.827,276.151,343.495,285.792z" fill="none"/><path d="M209.617,424.041c0.199,0.01,0.396,0.03,0.595,0.044c0.333,0.023,0.667,0.043,0.998,0.076   c0.251,0.025,0.499,0.061,0.748,0.092c0.272,0.034,0.546,0.063,0.817,0.104c0.281,0.042,0.557,0.095,0.835,0.144   c0.235,0.042,0.47,0.079,0.703,0.126c0.301,0.06,0.599,0.131,0.897,0.2c0.203,0.047,0.408,0.09,0.61,0.141   c0.321,0.081,0.637,0.171,0.954,0.261c0.174,0.049,0.348,0.095,0.521,0.148c0.336,0.102,0.667,0.213,0.999,0.326   c0.148,0.05,0.297,0.098,0.443,0.15c0.35,0.125,0.696,0.259,1.041,0.395c0.121,0.048,0.244,0.094,0.364,0.144   c0.362,0.148,0.719,0.306,1.074,0.467c0.099,0.045,0.198,0.088,0.297,0.134c0.371,0.173,0.737,0.355,1.101,0.542   c0.077,0.04,0.154,0.078,0.231,0.118c0.379,0.199,0.752,0.406,1.122,0.619c0.057,0.033,0.115,0.065,0.171,0.099   c0.384,0.224,0.761,0.457,1.135,0.697c0.04,0.026,0.08,0.051,0.119,0.076c0.385,0.25,0.764,0.508,1.137,0.773   c0.026,0.019,0.052,0.037,0.079,0.056c0.383,0.274,0.76,0.557,1.13,0.848c0.014,0.011,0.028,0.022,0.043,0.034   c0.379,0.299,0.751,0.605,1.116,0.92c0.005,0.004,0.01,0.009,0.015,0.013C235.698,437.655,240,446.322,240,456   c0,8.855-3.598,16.87-9.411,22.664C238.874,489.933,247.556,496,256,496c22.539,0,46.779-43.186,60.597-113.392   c-18.895-7.104-39.146-15.954-60.597-26.678c-21.452,10.724-41.702,19.574-60.598,26.678c2.98,15.139,6.443,29.022,10.27,41.486   c0.77-0.055,1.544-0.093,2.327-0.093C208.542,424,209.081,424.014,209.617,424.041z" fill="none"/><path d="M300,179.79c8.853,5.111,17.365,10.226,25.548,15.333c-1.437-17.417-3.466-33.872-5.981-49.225   c-14.553,5.498-29.818,11.969-45.621,19.433C282.461,169.864,291.147,174.679,300,179.79z" fill="none"/><path d="M256,337.874c11.775-5.976,23.795-12.474,36-19.521c12.204-7.046,23.842-14.207,34.905-21.417   C327.617,283.751,328,270.092,328,256c0-14.093-0.383-27.751-1.094-40.937c-11.063-7.21-22.701-14.37-34.905-21.417   c-12.205-7.046-24.225-13.544-36-19.521c-11.776,5.977-23.796,12.475-36,19.521c-12.205,7.046-23.842,14.207-34.906,21.417   C184.382,228.249,184,241.907,184,256c0,14.093,0.382,27.751,1.094,40.937c11.063,7.21,22.701,14.37,34.906,21.417   C232.204,325.4,244.224,331.898,256,337.874z M256,208c26.51,0,48,21.49,48,48s-21.49,48-48,48c-26.51,0-48-21.49-48-48   S229.49,208,256,208z" fill="none"/><path d="M392,152c-5.908,0-11.438-1.608-16.188-4.4c-0.005-0.003-0.01-0.006-0.016-0.009   c-0.383-0.225-0.76-0.459-1.132-0.7c-0.041-0.026-0.082-0.052-0.123-0.079c-0.349-0.228-0.693-0.463-1.032-0.704   c-0.061-0.043-0.122-0.086-0.182-0.129c-0.323-0.233-0.642-0.471-0.956-0.716c-0.073-0.056-0.145-0.113-0.217-0.17   c-0.302-0.24-0.601-0.484-0.894-0.734c-0.078-0.066-0.155-0.134-0.232-0.201c-0.286-0.248-0.568-0.5-0.845-0.758   c-0.078-0.073-0.154-0.147-0.232-0.221c-0.273-0.259-0.542-0.521-0.806-0.79c-0.073-0.075-0.144-0.152-0.217-0.227   c-0.264-0.274-0.525-0.551-0.779-0.834c-0.057-0.063-0.111-0.13-0.168-0.194c-0.266-0.302-0.529-0.605-0.783-0.916   c-0.002-0.003-0.005-0.006-0.007-0.009c-0.823-1.009-1.581-2.071-2.278-3.176c-0.069-0.109-0.141-0.216-0.209-0.326   c-0.156-0.254-0.302-0.513-0.451-0.771c-0.1-0.174-0.203-0.347-0.3-0.523c-0.131-0.238-0.255-0.481-0.381-0.723   c-0.105-0.203-0.211-0.405-0.312-0.61c-0.114-0.232-0.221-0.466-0.33-0.701c-0.102-0.222-0.205-0.443-0.302-0.668   c-0.1-0.23-0.194-0.462-0.289-0.694c-0.014-0.034-0.028-0.067-0.042-0.101c-8.603,2.342-17.604,5.106-26.953,8.3   c3.295,19.916,5.756,41.878,7.195,65.818c20.013,13.216,37.803,26.328,53.403,39.14c53.891-47.07,79.171-89.655,67.902-109.175   c-5.363-9.289-19.394-14.019-39.919-13.937C422.862,138.774,408.979,152,392,152z" fill="none"/><path d="M65.617,168.041c0.2,0.01,0.396,0.03,0.595,0.044c0.333,0.023,0.667,0.043,0.997,0.076   c0.251,0.025,0.499,0.061,0.748,0.092c0.272,0.034,0.546,0.063,0.817,0.104c0.28,0.042,0.557,0.095,0.835,0.144   c0.234,0.042,0.47,0.079,0.703,0.126c0.301,0.06,0.599,0.131,0.897,0.2c0.203,0.047,0.408,0.09,0.61,0.141   c0.32,0.08,0.635,0.171,0.951,0.26c0.175,0.05,0.351,0.096,0.525,0.149c0.336,0.102,0.667,0.213,0.998,0.326   c0.147,0.05,0.296,0.098,0.443,0.15c0.349,0.124,0.693,0.258,1.037,0.394c0.123,0.049,0.248,0.095,0.37,0.146   c0.362,0.149,0.719,0.306,1.073,0.467c0.098,0.045,0.197,0.088,0.294,0.133c0.371,0.173,0.737,0.355,1.1,0.542   c0.078,0.04,0.156,0.079,0.233,0.12c0.377,0.198,0.75,0.405,1.118,0.617c0.059,0.034,0.117,0.067,0.176,0.101   c0.382,0.224,0.759,0.456,1.131,0.695c0.041,0.026,0.082,0.052,0.123,0.079c0.384,0.249,0.762,0.507,1.134,0.772   c0.027,0.019,0.053,0.038,0.08,0.057c0.383,0.274,0.759,0.556,1.129,0.847c0.015,0.012,0.03,0.023,0.044,0.035   c0.379,0.298,0.75,0.604,1.115,0.919c0.006,0.005,0.011,0.01,0.017,0.015c0.371,0.321,0.734,0.649,1.09,0.986l0,0l0,0   c6.155,5.832,10,14.077,10,23.226c0,7.434-2.542,14.27-6.795,19.703c7.944,8.261,16.909,16.79,26.85,25.473   c15.6-12.812,33.39-25.924,53.403-39.14c1.439-23.939,3.899-45.902,7.195-65.818C108.944,117.081,59.424,116.48,48.154,136   c-4.611,7.987-3.093,19.841,3.989,34.279C55.811,168.814,59.809,168,64,168C64.542,168,65.081,168.014,65.617,168.041z" fill="none"/><path d="M316.597,129.392C302.779,59.186,278.539,16,256,16c-22.54,0-46.779,43.186-60.598,113.392   c18.895,7.104,39.146,15.954,60.598,26.678C277.452,145.347,297.702,136.496,316.597,129.392z" fill="none"/><path d="M168,256c0-10.222,0.173-20.151,0.505-29.792c-14.365,9.953-27.601,19.937-39.64,29.792   c12.039,9.855,25.274,19.839,39.64,29.792C168.173,276.151,168,266.222,168,256z" fill="none"/><path d="M238.053,165.331c-15.802-7.464-31.067-13.935-45.621-19.433c-2.515,15.353-4.544,31.808-5.981,49.225   c8.183-5.107,16.696-10.222,25.548-15.333C220.853,174.679,229.538,169.864,238.053,165.331z" fill="none"/><path d="M395.944,266.825c-15.6,12.812-33.39,25.924-53.403,39.14c-1.439,23.939-3.899,45.902-7.195,65.818   c67.709,23.136,117.229,23.737,128.499,4.217C475.116,356.48,449.835,313.895,395.944,266.825z" fill="none"/><path d="M186.452,316.877c1.437,17.417,3.466,33.872,5.981,49.225c14.553-5.498,29.818-11.969,45.62-19.433   c-8.514-4.533-17.2-9.348-26.053-14.459C203.147,327.099,194.635,321.984,186.452,316.877z" fill="none"/><path d="M300,332.21c-8.853,5.111-17.539,9.926-26.053,14.459c15.802,7.464,31.067,13.935,45.621,19.433   c2.515-15.353,4.544-31.808,5.981-49.225C317.365,321.984,308.853,327.099,300,332.21z" fill="none"/><path d="M116.056,266.825C62.165,313.895,36.884,356.48,48.154,376c11.27,19.52,60.79,18.919,128.499-4.217   c-3.296-19.916-5.756-41.878-7.195-65.818C149.445,292.749,131.655,279.637,116.056,266.825z" fill="none"/><path d="M408.689,256c62.099-54.576,83.729-102.512,69.014-128c-8.123-14.07-27.717-21.96-56.806-21.759   C422.884,110.409,424,115.074,424,120c0,0.694-0.03,1.38-0.073,2.063c20.525-0.083,34.556,4.647,39.919,13.937   c11.27,19.52-14.011,62.105-67.902,109.175c-15.6-12.812-33.39-25.924-53.403-39.14c-1.439-23.939-3.899-45.902-7.195-65.818   c9.35-3.195,18.35-5.959,26.953-8.3c-0.081-0.202-0.16-0.404-0.237-0.608c-0.087-0.229-0.17-0.46-0.251-0.691   c-0.087-0.247-0.171-0.495-0.252-0.745c-0.074-0.229-0.146-0.458-0.215-0.689c-0.077-0.259-0.151-0.519-0.221-0.78   c-0.062-0.228-0.123-0.455-0.18-0.685c-0.067-0.271-0.129-0.545-0.189-0.819c-0.05-0.225-0.1-0.449-0.144-0.675   c-0.057-0.286-0.105-0.574-0.154-0.863c-0.037-0.219-0.076-0.438-0.109-0.658c-0.045-0.306-0.081-0.615-0.117-0.924   c-0.024-0.207-0.053-0.413-0.073-0.622c-0.034-0.345-0.057-0.694-0.079-1.042c-0.011-0.176-0.028-0.349-0.037-0.526   c-0.026-0.526-0.04-1.056-0.04-1.589c0-1.585,0.12-3.142,0.342-4.665c-8.917,2.336-18.254,5.136-27.998,8.432   C316.13,42.7,285.43,0,256,0c-29.431,0-60.13,42.7-76.344,123.768C101.342,97.276,49.013,102.512,34.297,128   c-7.198,12.468-5.687,30.312,4.989,51.672c3.398-4.126,7.813-7.379,12.857-9.393c-7.082-14.437-8.6-26.292-3.989-34.279   c11.27-19.52,60.79-18.919,128.499,4.217c-3.296,19.916-5.756,41.878-7.195,65.818c-20.013,13.216-37.803,26.328-53.403,39.14   c-9.941-8.683-18.907-17.212-26.85-25.473c-3.442,4.397-8.005,7.868-13.263,9.985c8.041,8.544,17.159,17.338,27.369,26.312   c-62.099,54.576-83.729,102.512-69.014,128c14.715,25.488,67.044,30.724,145.358,4.232c3.016,15.081,6.532,28.838,10.45,41.235   c4.504-3.043,9.827-4.961,15.567-5.374c-3.828-12.463-7.291-26.347-10.27-41.486c18.895-7.104,39.146-15.954,60.598-26.678   c21.452,10.724,41.702,19.574,60.597,26.678C302.779,452.814,278.539,496,256,496c-8.444,0-17.126-6.066-25.411-17.336   c-3.711,3.699-8.328,6.486-13.486,8.015C229.38,503.423,242.817,512,256,512c29.43,0,60.13-42.7,76.344-123.768   c78.313,26.491,130.643,21.255,145.358-4.232C492.418,358.512,470.788,310.576,408.689,256z M383.135,256   c-12.039,9.855-25.274,19.839-39.64,29.792C343.827,276.151,344,266.222,344,256s-0.173-20.151-0.505-29.792   C357.861,236.161,371.096,246.145,383.135,256z M184,256c0-14.093,0.382-27.751,1.094-40.937   c11.063-7.21,22.701-14.37,34.906-21.417c12.204-7.046,24.224-13.544,36-19.521c11.775,5.977,23.795,12.475,36,19.521   c12.204,7.046,23.842,14.207,34.905,21.417C327.617,228.249,328,241.907,328,256c0,14.093-0.383,27.751-1.094,40.937   c-11.063,7.21-22.701,14.37-34.905,21.417c-12.205,7.046-24.225,13.544-36,19.521c-11.776-5.976-23.796-12.474-36-19.521   c-12.205-7.046-23.842-14.207-34.906-21.417C184.382,283.751,184,270.092,184,256z M325.548,195.123   c-8.183-5.107-16.696-10.222-25.548-15.333c-8.853-5.111-17.539-9.926-26.053-14.459c15.802-7.464,31.067-13.935,45.621-19.433   C322.083,161.251,324.111,177.705,325.548,195.123z M256,16c22.539,0,46.779,43.186,60.597,113.392   c-18.895,7.104-39.146,15.954-60.597,26.678c-21.452-10.724-41.702-19.574-60.598-26.678C209.221,59.186,233.46,16,256,16z    M192.432,145.898c14.553,5.498,29.818,11.969,45.621,19.433c-8.515,4.533-17.2,9.348-26.053,14.459   c-8.853,5.111-17.365,10.226-25.548,15.333C187.888,177.705,189.917,161.251,192.432,145.898z M168.505,226.208   C168.173,235.848,168,245.778,168,256s0.173,20.151,0.505,29.792c-14.365-9.953-27.601-19.937-39.64-29.792   C140.903,246.145,154.139,236.161,168.505,226.208z M48.154,376c-11.27-19.52,14.011-62.105,67.902-109.175   c15.6,12.812,33.39,25.924,53.403,39.14c1.439,23.939,3.899,45.902,7.195,65.818C108.944,394.918,59.424,395.519,48.154,376z    M192.432,366.102c-2.515-15.353-4.544-31.808-5.981-49.225c8.183,5.107,16.696,10.222,25.548,15.333   c8.853,5.111,17.538,9.926,26.053,14.459C222.251,354.133,206.986,360.604,192.432,366.102z M273.947,346.669   c8.515-4.533,17.2-9.348,26.053-14.459c8.853-5.111,17.365-10.226,25.548-15.333c-1.437,17.417-3.466,33.872-5.981,49.225   C305.014,360.604,289.749,354.133,273.947,346.669z M463.846,376c-11.27,19.52-60.79,18.919-128.499-4.217   c3.296-19.916,5.756-41.878,7.195-65.818c20.013-13.216,37.803-26.328,53.403-39.14C449.835,313.895,475.116,356.48,463.846,376z" fill="#635b73"/><circle cx="256" cy="256" r="48" fill="#ffcf00"/><path d="M240,456c0-9.678-4.302-18.345-11.091-24.213c0.371,0.321,0.735,0.65,1.091,0.987   c-1.268-0.153-2.557-0.241-3.866-0.241c-17.673,0-32,14.327-32,32c0,9.149,3.845,17.394,10,23.226   c-4.453-0.537-8.625-1.988-12.323-4.16c4.75,2.792,10.281,4.4,16.189,4.4c3.164,0,6.217-0.466,9.103-1.322   c5.158-1.528,9.775-4.316,13.486-8.015C236.402,472.87,240,464.855,240,456z" fill="#ffedb9"/><path d="M194.133,464.533c0-17.673,14.327-32,32-32c1.31,0,2.598,0.088,3.866,0.241   c-0.356-0.337-0.72-0.666-1.091-0.987c-0.005-0.004-0.01-0.009-0.015-0.013c-0.365-0.315-0.737-0.622-1.116-0.92   c-0.014-0.011-0.029-0.022-0.043-0.034c-0.37-0.291-0.747-0.573-1.13-0.848c-0.026-0.019-0.052-0.037-0.079-0.056   c-0.373-0.266-0.752-0.524-1.137-0.773c-0.04-0.026-0.08-0.051-0.119-0.076c-0.373-0.24-0.751-0.472-1.135-0.697   c-0.057-0.033-0.114-0.066-0.171-0.099c-0.37-0.214-0.743-0.42-1.122-0.619c-0.076-0.04-0.154-0.079-0.231-0.118   c-0.363-0.187-0.73-0.369-1.101-0.542c-0.098-0.046-0.198-0.089-0.297-0.134c-0.355-0.161-0.712-0.319-1.074-0.467   c-0.121-0.05-0.243-0.095-0.364-0.144c-0.344-0.137-0.69-0.271-1.041-0.395c-0.147-0.052-0.296-0.1-0.443-0.15   c-0.331-0.113-0.663-0.224-0.999-0.326c-0.172-0.052-0.347-0.098-0.521-0.148c-0.317-0.09-0.633-0.181-0.954-0.261   c-0.202-0.051-0.406-0.094-0.61-0.141c-0.298-0.069-0.596-0.14-0.897-0.2c-0.233-0.047-0.469-0.084-0.703-0.126   c-0.278-0.049-0.555-0.102-0.835-0.144c-0.27-0.041-0.544-0.07-0.817-0.104c-0.25-0.031-0.497-0.067-0.748-0.092   c-0.33-0.033-0.664-0.053-0.998-0.076c-0.198-0.014-0.395-0.034-0.595-0.044C209.081,424.014,208.542,424,208,424   c-0.784,0-1.558,0.038-2.327,0.093c-5.74,0.413-11.063,2.33-15.567,5.374C181.595,435.218,176,444.955,176,456   c0,0.533,0.014,1.062,0.04,1.589c0.009,0.176,0.026,0.35,0.037,0.525c0.023,0.349,0.045,0.697,0.079,1.042   c0.021,0.208,0.049,0.415,0.073,0.622c0.036,0.309,0.072,0.618,0.117,0.924c0.032,0.221,0.072,0.439,0.109,0.659   c0.049,0.288,0.098,0.577,0.154,0.863c0.045,0.226,0.095,0.451,0.144,0.675c0.06,0.274,0.122,0.548,0.189,0.819   c0.057,0.229,0.118,0.457,0.18,0.685c0.071,0.261,0.144,0.522,0.222,0.78c0.069,0.231,0.141,0.461,0.215,0.689   c0.081,0.25,0.165,0.498,0.252,0.745c0.082,0.232,0.164,0.462,0.251,0.691c0.09,0.238,0.184,0.473,0.279,0.708   c0.094,0.232,0.189,0.465,0.289,0.694c0.097,0.224,0.199,0.444,0.301,0.665c0.109,0.236,0.217,0.472,0.331,0.705   c0.101,0.204,0.206,0.405,0.311,0.607c0.125,0.243,0.25,0.486,0.381,0.725c0.097,0.176,0.2,0.349,0.301,0.523   c0.149,0.258,0.295,0.518,0.451,0.771c0.067,0.11,0.14,0.217,0.209,0.326c0.697,1.105,1.456,2.169,2.279,3.177   c0.002,0.003,0.004,0.005,0.006,0.008c0.255,0.313,0.519,0.617,0.786,0.92c0.055,0.063,0.108,0.127,0.164,0.189   c0.255,0.285,0.518,0.563,0.783,0.838c0.071,0.074,0.141,0.15,0.213,0.223c0.264,0.269,0.534,0.531,0.807,0.791   c0.077,0.073,0.154,0.148,0.231,0.221c0.277,0.258,0.56,0.51,0.846,0.759c0.077,0.067,0.153,0.134,0.231,0.2   c0.294,0.25,0.592,0.495,0.895,0.734c0.072,0.057,0.144,0.114,0.217,0.171c0.314,0.244,0.633,0.483,0.956,0.716   c0.06,0.043,0.12,0.086,0.181,0.128c0.34,0.241,0.684,0.477,1.034,0.705c0.04,0.026,0.08,0.051,0.12,0.077   c0.373,0.241,0.751,0.476,1.135,0.701c0.004,0.003,0.009,0.005,0.013,0.008c3.697,2.172,7.869,3.623,12.323,4.16   C197.979,481.927,194.133,473.682,194.133,464.533z" fill="#ffd586"/><path d="M410.133,96.533c-17.673,0-32,14.327-32,32c0,9.149,3.845,17.394,10,23.226   c-4.453-0.537-8.625-1.987-12.321-4.159c4.75,2.792,10.28,4.4,16.188,4.4c16.979,0,30.862-13.226,31.927-29.937   C423.97,121.38,424,120.694,424,120c0-4.926-1.115-9.591-3.104-13.759c-1.918-4.021-4.654-7.573-7.988-10.454   c0.371,0.321,0.735,0.65,1.092,0.988C412.731,96.621,411.443,96.533,410.133,96.533z" fill="#708aff"/><path d="M360.04,121.589c0.009,0.176,0.025,0.35,0.037,0.526c0.023,0.349,0.046,0.697,0.079,1.042   c0.021,0.208,0.049,0.414,0.073,0.622c0.036,0.309,0.072,0.618,0.117,0.924c0.032,0.221,0.072,0.439,0.109,0.658   c0.049,0.289,0.098,0.577,0.154,0.863c0.044,0.226,0.094,0.451,0.144,0.675c0.06,0.274,0.122,0.548,0.189,0.819   c0.057,0.229,0.118,0.457,0.18,0.685c0.071,0.261,0.144,0.522,0.221,0.78c0.069,0.231,0.141,0.461,0.215,0.689   c0.081,0.25,0.165,0.498,0.252,0.745c0.082,0.231,0.165,0.462,0.251,0.691c0.077,0.204,0.156,0.406,0.237,0.608   c0.014,0.034,0.028,0.067,0.042,0.101c0.094,0.232,0.189,0.464,0.289,0.694c0.097,0.224,0.2,0.446,0.302,0.668   c0.108,0.235,0.216,0.47,0.33,0.701c0.101,0.205,0.207,0.407,0.312,0.61c0.125,0.242,0.249,0.485,0.381,0.723   c0.097,0.176,0.2,0.349,0.3,0.523c0.149,0.258,0.295,0.518,0.451,0.771c0.068,0.11,0.14,0.217,0.209,0.326   c0.697,1.105,1.455,2.168,2.278,3.176c0.002,0.003,0.005,0.006,0.007,0.009c0.254,0.311,0.517,0.615,0.783,0.916   c0.056,0.064,0.111,0.13,0.168,0.194c0.254,0.284,0.515,0.56,0.779,0.834c0.073,0.075,0.143,0.153,0.217,0.227   c0.263,0.268,0.533,0.531,0.806,0.79c0.077,0.074,0.154,0.148,0.232,0.221c0.277,0.258,0.559,0.51,0.845,0.758   c0.077,0.067,0.154,0.135,0.232,0.201c0.293,0.25,0.592,0.494,0.894,0.734c0.072,0.057,0.145,0.114,0.217,0.17   c0.314,0.244,0.632,0.483,0.956,0.716c0.06,0.043,0.121,0.086,0.182,0.129c0.339,0.241,0.683,0.476,1.032,0.704   c0.041,0.027,0.082,0.052,0.123,0.079c0.372,0.24,0.749,0.475,1.132,0.7c0.005,0.003,0.011,0.006,0.016,0.009   c3.697,2.171,7.868,3.622,12.321,4.159c-6.155-5.832-10-14.077-10-23.226c0-17.673,14.327-32,32-32c1.31,0,2.598,0.088,3.866,0.241   c-0.356-0.338-0.72-0.667-1.092-0.988c-0.005-0.004-0.009-0.008-0.014-0.012c-0.365-0.316-0.738-0.623-1.118-0.922   c-0.013-0.01-0.027-0.021-0.04-0.032c-0.371-0.291-0.749-0.574-1.132-0.849c-0.025-0.018-0.051-0.036-0.077-0.055   c-0.373-0.266-0.752-0.524-1.137-0.774c-0.04-0.026-0.079-0.051-0.119-0.076c-0.373-0.24-0.751-0.473-1.135-0.697   c-0.056-0.033-0.114-0.065-0.17-0.098c-0.37-0.214-0.744-0.421-1.123-0.62c-0.076-0.04-0.153-0.078-0.229-0.117   c-0.364-0.187-0.73-0.369-1.102-0.542c-0.098-0.046-0.198-0.089-0.297-0.134c-0.355-0.161-0.712-0.319-1.073-0.467   c-0.121-0.05-0.244-0.096-0.365-0.144c-0.344-0.137-0.69-0.27-1.04-0.395c-0.146-0.052-0.294-0.099-0.441-0.149   c-0.332-0.113-0.664-0.224-1-0.326c-0.172-0.052-0.346-0.098-0.519-0.147c-0.317-0.09-0.634-0.181-0.955-0.262   c-0.202-0.051-0.406-0.094-0.61-0.141c-0.298-0.069-0.596-0.14-0.897-0.2c-0.233-0.047-0.469-0.084-0.703-0.126   c-0.278-0.049-0.554-0.102-0.835-0.144c-0.271-0.041-0.544-0.07-0.817-0.104c-0.249-0.031-0.497-0.067-0.748-0.092   c-0.33-0.033-0.664-0.053-0.997-0.076c-0.198-0.014-0.396-0.034-0.595-0.044C393.081,88.014,392.542,88,392,88   c-16.088,0-29.399,11.874-31.658,27.335C360.12,116.858,360,118.415,360,120C360,120.533,360.014,121.062,360.04,121.589z" fill="#3d6edd"/><path d="M89.205,219.702C93.458,214.27,96,207.434,96,200c0-9.149-3.845-17.394-10-23.226   c-1.268-0.153-2.557-0.241-3.866-0.241c-17.673,0-32,14.327-32,32c0,9.148,3.845,17.394,10,23.226   c-4.452-0.536-8.622-1.986-12.318-4.157C52.565,230.393,58.094,232,64,232c4.223,0,8.251-0.826,11.942-2.312   C81.2,227.57,85.764,224.099,89.205,219.702z" fill="#ff7400"/><path d="M50.133,208.533c0-17.673,14.327-32,32-32c1.31,0,2.598,0.088,3.866,0.241l0,0l0,0   c-0.355-0.337-0.719-0.666-1.09-0.986c-0.005-0.005-0.011-0.01-0.017-0.015c-0.364-0.314-0.736-0.621-1.115-0.919   c-0.015-0.011-0.03-0.023-0.044-0.035c-0.37-0.29-0.746-0.573-1.129-0.847c-0.027-0.019-0.053-0.038-0.08-0.057   c-0.372-0.265-0.75-0.522-1.134-0.772c-0.041-0.027-0.082-0.052-0.123-0.079c-0.372-0.239-0.749-0.471-1.131-0.695   c-0.058-0.034-0.117-0.067-0.176-0.101c-0.368-0.213-0.741-0.419-1.118-0.617c-0.077-0.041-0.156-0.08-0.233-0.12   c-0.363-0.187-0.729-0.369-1.1-0.542c-0.098-0.046-0.197-0.088-0.294-0.133c-0.355-0.161-0.712-0.318-1.073-0.467   c-0.123-0.05-0.247-0.097-0.37-0.146c-0.343-0.136-0.688-0.269-1.037-0.394c-0.146-0.052-0.295-0.1-0.443-0.15   c-0.331-0.113-0.662-0.224-0.998-0.326c-0.174-0.053-0.35-0.099-0.525-0.149c-0.316-0.09-0.631-0.18-0.951-0.26   c-0.202-0.051-0.407-0.094-0.61-0.141c-0.298-0.069-0.596-0.14-0.897-0.2c-0.233-0.047-0.469-0.084-0.703-0.126   c-0.278-0.049-0.555-0.102-0.835-0.144c-0.271-0.041-0.544-0.07-0.817-0.104c-0.25-0.031-0.497-0.067-0.748-0.092   c-0.33-0.033-0.664-0.053-0.997-0.076c-0.199-0.014-0.396-0.034-0.595-0.044C65.081,168.014,64.542,168,64,168   c-4.191,0-8.189,0.814-11.857,2.279c-5.044,2.014-9.459,5.267-12.857,9.393C34.734,185.199,32,192.28,32,200   c0,0.533,0.014,1.062,0.04,1.589c0.009,0.176,0.026,0.35,0.037,0.526c0.023,0.349,0.045,0.697,0.079,1.042   c0.02,0.208,0.049,0.414,0.073,0.622c0.037,0.309,0.072,0.618,0.118,0.924c0.032,0.221,0.072,0.439,0.109,0.659   c0.049,0.288,0.098,0.577,0.154,0.863c0.045,0.226,0.095,0.451,0.144,0.675c0.06,0.274,0.122,0.548,0.189,0.819   c0.057,0.23,0.118,0.457,0.18,0.685c0.071,0.261,0.144,0.522,0.222,0.78c0.069,0.231,0.141,0.461,0.215,0.689   c0.081,0.25,0.165,0.498,0.252,0.745c0.082,0.232,0.165,0.462,0.251,0.692c0.09,0.238,0.184,0.473,0.279,0.708   c0.094,0.232,0.189,0.464,0.289,0.694c0.097,0.224,0.2,0.446,0.302,0.668c0.108,0.234,0.216,0.469,0.329,0.701   c0.101,0.205,0.208,0.407,0.313,0.61c0.125,0.242,0.249,0.485,0.38,0.723c0.097,0.177,0.201,0.349,0.301,0.524   c0.148,0.258,0.295,0.516,0.45,0.769c0.069,0.112,0.143,0.221,0.213,0.332c0.694,1.1,1.448,2.157,2.267,3.161   c0.005,0.006,0.01,0.013,0.015,0.019c0.254,0.311,0.516,0.614,0.781,0.915c0.057,0.064,0.111,0.13,0.168,0.194   c0.254,0.283,0.515,0.56,0.779,0.834c0.073,0.075,0.144,0.152,0.217,0.227c0.263,0.268,0.533,0.531,0.806,0.79   c0.077,0.074,0.154,0.148,0.232,0.221c0.277,0.258,0.559,0.51,0.845,0.758c0.077,0.067,0.154,0.135,0.232,0.201   c0.293,0.25,0.592,0.494,0.894,0.734c0.072,0.057,0.145,0.114,0.217,0.171c0.313,0.244,0.631,0.482,0.954,0.714   c0.062,0.044,0.123,0.088,0.185,0.132c0.339,0.24,0.682,0.475,1.03,0.702c0.041,0.027,0.082,0.053,0.123,0.079   c0.372,0.24,0.748,0.474,1.131,0.699c0.007,0.004,0.014,0.008,0.021,0.012c3.696,2.17,7.866,3.62,12.318,4.157   C53.979,225.927,50.133,217.682,50.133,208.533z" fill="#d55a00"/></g><g transform="matrix(0.09856529533863068 -0.008696937933564186 0.008696937933564186 0.09856529533863068 194.39996337890625 33.7100715637207)" id="L1_1"><path d="M416,247.647   c0,0.078,0,0.078,0,0.078" fill="none" stroke="#5c546a" stroke-linecap="round" stroke-linejoin="round" stroke-width="0"/><path d="M115.218,108.547c0.336,0.218,0.666,0.443,0.991,0.675c0.024,0.017,0.047,0.033,0.071,0.051   c0.335,0.24,0.664,0.487,0.988,0.741c0.013,0.01,0.025,0.02,0.038,0.03c0.331,0.261,0.656,0.529,0.975,0.804   c0.005,0.004,0.01,0.009,0.015,0.013c0.324,0.281,0.642,0.568,0.953,0.863c0,0,0,0,0,0l0,0c0.825,0.782,1.608,1.609,2.333,2.485   c0.35,0.045,0.702,0.076,1.058,0.076c1.836,0,3.602-0.559,5.117-1.84c3.438-2.801,3.844-7.84,1.039-11.281   c-2.797-3.359-7.836-3.84-11.281-1.039c-2.443,2.093-3.353,5.329-2.597,8.232c0.064,0.04,0.127,0.081,0.19,0.122   C115.146,108.501,115.182,108.523,115.218,108.547z" fill="#5c546a"/><path d="M68.719,180.287c-4.242-1.523-8.797,0.719-10.242,4.875c-1.438,4.242,0.805,8.719,4.961,10.242   c0.883,0.242,1.758,0.398,2.641,0.398c3.281,0,6.398-2.078,7.523-5.359C75.039,186.287,72.875,181.725,68.719,180.287z" fill="#5c546a"/><path d="M142,92.045c1.438,2.637,4.156,4.078,6.961,4.078c1.281,0,2.719-0.32,3.914-1.039   c3.844-2.242,5.203-7.121,2.961-10.961c-2.156-3.84-7.039-5.121-10.875-2.961C141.117,83.323,139.758,88.205,142,92.045z" fill="#5c546a"/><path d="M85.823,156.188c-0.336-0.198-0.667-0.403-0.993-0.614c-0.035-0.022-0.07-0.044-0.104-0.067   c-0.306-0.199-0.607-0.406-0.904-0.616c-0.053-0.038-0.106-0.075-0.159-0.113c-0.284-0.204-0.563-0.413-0.838-0.628   c-0.062-0.048-0.124-0.097-0.186-0.146c-0.266-0.211-0.529-0.425-0.787-0.646c-0.066-0.056-0.132-0.114-0.198-0.171   c-0.251-0.218-0.5-0.44-0.743-0.667c-0.068-0.063-0.133-0.127-0.2-0.191c-0.24-0.228-0.477-0.458-0.708-0.694   c-0.062-0.063-0.122-0.129-0.184-0.193c-0.233-0.242-0.463-0.485-0.687-0.735c-0.009-0.01-0.018-0.019-0.026-0.028   c-2.784,0.033-5.486,1.49-6.948,4.085c-2.156,3.84-0.797,8.719,3.125,10.883c1.195,0.719,2.555,1.039,3.836,1.039   c2.805,0,5.523-1.523,7.039-4.164c0.984-1.811,1.191-3.852,0.741-5.731c-0.36-0.191-0.714-0.391-1.064-0.596   C85.83,156.192,85.826,156.19,85.823,156.188z" fill="#5c546a"/><path d="M57.039,226.686c0.398,0.078,0.797,0.156,1.203,0.156c3.914,0,7.273-2.797,7.914-6.797   c0.719-4.32-2.234-8.484-6.641-9.125c-4.32-0.719-8.477,2.242-9.117,6.641C49.68,221.881,52.641,226.045,57.039,226.686z" fill="#5c546a"/><path d="M105.68,374.045c3.359-2.883,3.68-7.922,0.797-11.281c-2.875-3.359-7.922-3.758-11.281-0.883   c-3.359,2.883-3.68,7.922-0.797,11.281c1.523,1.844,3.758,2.805,6,2.805C102.242,375.967,104.156,375.326,105.68,374.045z" fill="#5c546a"/><path d="M81.758,350.045c1.438,0,2.797-0.398,4.078-1.125c3.844-2.32,5.039-7.195,2.805-10.953   c-2.242-3.844-7.203-5.125-10.961-2.805c-3.844,2.242-5.039,7.125-2.805,10.961C76.398,348.6,79.039,350.045,81.758,350.045z" fill="#5c546a"/><path d="M56.078,258.686c4.477-0.086,8-3.68,7.922-8.086c-0.078-4.477-3.68-8-8.078-7.914   c-4.484,0.078-8,3.68-7.922,8.078s3.68,7.922,8,7.922C56.078,258.686,56.078,258.686,56.078,258.686z" fill="#5c546a"/><path d="M75.359,310.365c-1.602-4.078-6.164-6.164-10.32-4.641c-4.164,1.602-6.242,6.242-4.641,10.32   c1.203,3.195,4.242,5.195,7.438,5.195c0.961,0,1.922-0.156,2.883-0.555C74.797,319.162,76.875,314.522,75.359,310.365z" fill="#5c546a"/><path d="M59.195,290.443c0.484,0,0.961,0,1.523-0.078c4.32-0.883,7.203-5.039,6.398-9.359   c-0.875-4.32-5.039-7.203-9.359-6.406c-4.398,0.805-7.203,5.047-6.398,9.367C52.078,287.803,55.438,290.443,59.195,290.443z" fill="#5c546a"/><path d="M170.398,77.483c1.203,3.281,4.242,5.281,7.602,5.281c0.875,0,1.758-0.16,2.641-0.48   c4.156-1.441,6.32-6.078,4.875-10.238c-1.516-4.16-6.078-6.32-10.234-4.801C171.117,68.682,168.961,73.323,170.398,77.483z" fill="#5c546a"/><path d="M405.359,187.725c1.195,3.195,4.242,5.281,7.516,5.281c0.961,0,1.844-0.164,2.727-0.484   c4.156-1.516,6.32-6.156,4.797-10.32c-1.523-4.156-6.078-6.234-10.242-4.719C406,179.006,403.836,183.561,405.359,187.725z" fill="#5c546a"/><path d="M375.836,123.725c-3.359,2.801-3.758,7.918-0.961,11.277c1.602,1.84,3.844,2.883,6.164,2.883   c1.758,0,3.602-0.641,5.117-1.922c3.359-2.801,3.844-7.84,0.961-11.281h0.078C384.32,121.323,379.281,120.842,375.836,123.725z" fill="#5c546a"/><path d="M352.32,102.123c-2.883,3.359-2.398,8.402,0.961,11.281c1.516,1.199,3.359,1.84,5.195,1.84   c2.242,0,4.484-0.961,6.078-2.879c2.883-3.363,2.406-8.402-0.953-11.281C360.242,98.284,355.195,98.682,352.32,102.123z" fill="#5c546a"/><path d="M420,287.404c0.398,0.078,0.875,0.078,1.359,0.078c3.758,0,7.117-2.719,7.836-6.641   c0.727-4.32-2.156-8.477-6.477-9.195c-4.398-0.805-8.563,2.156-9.281,6.477C412.719,282.522,415.601,286.6,420,287.404z" fill="#5c546a"/><path d="M422.555,223.725c4.32-0.805,7.281-4.961,6.484-9.281c-0.719-4.32-4.883-7.281-9.281-6.477   c-4.32,0.797-7.203,4.875-6.477,9.273c0.719,3.844,4.078,6.563,7.914,6.563C421.601,223.803,422.078,223.803,422.555,223.725z" fill="#5c546a"/><path d="M200.961,68.045c0.719,3.84,4.078,6.637,7.914,6.637c0.484,0,0.883-0.078,1.367-0.078   c4.313-0.801,7.273-4.961,6.555-9.281c-0.797-4.32-4.875-7.277-9.281-6.559C203.195,59.565,200.242,63.643,200.961,68.045z" fill="#5c546a"/><path d="M325.437,84.842c-2.242,3.84-0.961,8.723,2.883,10.961c0-0.078,0-0.078,0-0.078   c1.195,0.801,2.641,1.117,4,1.117c2.719,0,5.438-1.438,6.875-4c2.242-3.758,0.961-8.637-2.875-10.879   C332.476,79.725,327.601,81.002,325.437,84.842z" fill="#5c546a"/><path d="M232.719,64.045c0,4.398,3.602,8,8,8c4.398,0,8-3.602,8-8c0-4.402-3.523-8-7.922-8   C236.32,56.045,232.797,59.565,232.719,64.045z" fill="#5c546a"/><path d="M264.719,65.483c-0.797,4.402,2.078,8.48,6.477,9.281c0.406,0.078,0.883,0.16,1.359,0.16   c3.844,0,7.203-2.719,7.922-6.641c0.719-4.32-2.156-8.48-6.477-9.281C269.601,58.284,265.437,61.162,264.719,65.483z" fill="#5c546a"/><path d="M295.922,72.526c-1.523,4.156,0.555,8.719,4.719,10.238c0.961,0.32,1.836,0.48,2.797,0.48   c3.203,0,6.32-2,7.438-5.199c1.523-4.16-0.555-8.801-4.719-10.32C302,66.205,297.437,68.366,295.922,72.526z" fill="#5c546a"/><path d="M424,239.647c-4.484,0-8,3.594-8,8c0,4.477,3.602,8,8,8s8-3.602,8-8   C432,243.24,428.398,239.647,424,239.647z" fill="#5c546a"/><path d="M399.359,164.045c1.359,0,2.797-0.398,4-1.125c3.836-2.156,5.117-7.117,2.961-10.875   c-2.242-3.84-7.125-5.203-10.961-2.961c-3.844,2.238-5.117,7.121-2.883,10.961C393.922,162.6,396.64,164.045,399.359,164.045z" fill="#5c546a"/><path d="M386.64,359.482c-3.445-2.883-8.484-2.398-11.281,1.039c-2.805,3.359-2.32,8.398,1.039,11.281   c1.523,1.203,3.281,1.844,5.117,1.844c2.32,0,4.563-1.047,6.164-2.883C390.476,367.326,390,362.287,386.64,359.482z" fill="#5c546a"/><path d="M301.359,413.084c-4.164,1.516-6.32,6.078-4.719,10.242c1.195,3.195,4.234,5.195,7.516,5.195   c0.883,0,1.844-0.156,2.719-0.477c4.164-1.523,6.242-6.164,4.727-10.242C310.078,413.647,305.516,411.482,301.359,413.084z" fill="#5c546a"/><path d="M420.64,313.084c1.516-4.164-0.641-8.719-4.805-10.242c-4.156-1.438-8.719,0.641-10.234,4.805   c-1.445,4.156,0.641,8.797,4.797,10.234c0.961,0.32,1.844,0.484,2.719,0.484C416.398,318.365,419.515,316.365,420.64,313.084z" fill="#5c546a"/><path d="M241.437,424.045c-4.398,0-8,3.68-7.922,8.078c0,4.398,3.602,7.922,8,7.922c0,0,0,0,0.086,0   c4.398-0.078,7.914-3.68,7.914-8.078C249.437,427.561,245.836,423.967,241.437,424.045z" fill="#5c546a"/><path d="M395.758,346.287c1.281,0.719,2.641,1.117,4,1.117c2.719,0,5.438-1.438,6.883-4.078h0.078   c2.156-3.766,0.797-8.727-3.039-10.883c-3.844-2.242-8.719-0.883-10.883,2.961C390.555,339.24,391.922,344.123,395.758,346.287z" fill="#5c546a"/><path d="M181.359,414.045c-4.164-1.523-8.719,0.719-10.164,4.875c-1.516,4.164,0.727,8.727,4.883,10.242   c0.883,0.242,1.758,0.398,2.641,0.398c3.281,0,6.398-2,7.523-5.359C187.758,420.123,185.516,415.482,181.359,414.045z" fill="#5c546a"/><path d="M129.438,395.326c2.805-3.359,2.32-8.406-1.117-11.203c-3.359-2.797-8.398-2.32-11.203,1.117   c-2.797,3.359-2.32,8.406,1.039,11.203v0.078c1.523,1.203,3.359,1.766,5.125,1.766   C125.602,398.287,127.836,397.326,129.438,395.326z" fill="#5c546a"/><path d="M271.836,421.162c-4.32,0.805-7.195,4.961-6.398,9.281c0.719,3.844,4.078,6.563,7.922,6.563   c0.398,0,0.883,0,1.359-0.086c4.398-0.875,7.281-5.039,6.477-9.359C280.398,423.24,276.242,420.365,271.836,421.162z" fill="#5c546a"/><path d="M328.961,399.967c-3.844,2.234-5.125,7.117-2.883,10.953c1.523,2.484,4.164,3.922,6.883,3.922   c1.438,0,2.797-0.32,4.078-1.117c3.758-2.242,5.117-7.125,2.883-10.883C337.68,399.006,332.719,397.725,328.961,399.967z" fill="#5c546a"/><path d="M153.602,401.404c-3.844-2.164-8.805-0.805-10.961,3.039c-2.164,3.844-0.805,8.719,3.039,10.883   c1.281,0.719,2.641,1.039,3.922,1.039c2.797,0,5.516-1.445,7.039-4.078C158.797,408.443,157.437,403.561,153.602,401.404z" fill="#5c546a"/><path d="M210.961,421.647c-4.406-0.727-8.484,2.234-9.203,6.555c-0.719,4.398,2.242,8.563,6.563,9.281   c0.477,0.078,0.875,0.078,1.359,0.078c3.836,0,7.195-2.797,7.836-6.719C218.242,426.522,215.281,422.365,210.961,421.647z" fill="#5c546a"/><path d="M353.836,382.287c0-0.086,0-0.086,0-0.086c-3.359,2.883-3.758,7.922-0.875,11.281   c1.516,1.922,3.836,2.883,6.078,2.883c1.836,0,3.68-0.641,5.203-1.922c3.359-2.883,3.758-7.922,0.875-11.281   C362.242,379.803,357.195,379.404,353.836,382.287z" fill="#5c546a"/><path d="M274.555,108.205c-4.313-1.043-8.633,1.598-9.68,5.84c-1.039,4.32,1.602,8.637,5.844,9.68   c0.641,0.16,1.281,0.238,1.922,0.238c3.602,0,6.875-2.398,7.758-6.078C281.437,113.643,278.797,109.244,274.555,108.205z" fill="#5c546a"/><path d="M150.961,156.045c3.195-3.043,3.281-8.16,0.234-11.281c-3.117-3.199-8.156-3.281-11.359-0.16v-0.078   c-3.195,3.117-3.281,8.156-0.156,11.359c1.516,1.598,3.68,2.48,5.758,2.48C147.437,158.366,149.437,157.565,150.961,156.045z" fill="#5c546a"/><path d="M289.281,382.842c0.961,0,1.914-0.156,2.875-0.555c4.164-1.602,6.164-6.242,4.563-10.32   c-1.602-4.164-6.242-6.164-10.32-4.563c-4.156,1.602-6.156,6.242-4.563,10.32C283.039,380.92,286.078,382.842,289.281,382.842z" fill="#5c546a"/><path d="M137.359,345.24c1.836,0,3.68-0.641,5.195-1.914c3.367-2.961,3.687-8,0.805-11.359   c-2.883-3.281-7.922-3.68-11.281-0.727c-3.359,2.883-3.68,7.922-0.797,11.281C132.875,344.287,135.117,345.24,137.359,345.24z" fill="#5c546a"/><path d="M204.555,124.682c0.727,0,1.445-0.078,2.086-0.238c4.32-1.199,6.797-5.602,5.68-9.84   c-1.125-4.238-5.523-6.801-9.844-5.602c-4.234,1.121-6.797,5.523-5.602,9.762C197.836,122.366,201.039,124.682,204.555,124.682z" fill="#5c546a"/><path d="M172.875,137.725c1.367,0,2.641-0.32,3.922-1.043c3.844-2.156,5.203-7.039,3.039-10.879   c-2.234-3.84-7.117-5.199-10.961-3.039c-3.836,2.238-5.195,7.121-2.953,10.961C167.359,136.283,170.078,137.725,172.875,137.725z" fill="#5c546a"/><path d="M130.797,181.241c2.32-3.758,1.125-8.719-2.641-10.953c-3.836-2.32-8.719-1.203-11.039,2.633   c-2.32,3.766-1.117,8.641,2.641,10.961c1.281,0.805,2.719,1.203,4.164,1.203C126.641,185.084,129.281,183.725,130.797,181.241z" fill="#5c546a"/><path d="M238.641,120.045c4.398,0,8-3.68,7.914-8.082c0-4.398-3.68-7.918-8.078-7.918   c-4.398,0.078-7.922,3.68-7.922,8.078c0.086,4.402,3.602,7.922,8,7.922H238.641z" fill="#5c546a"/><path d="M308.476,121.323h-0.078c-3.844-2.078-8.719-0.641-10.797,3.203   c-2.086,3.918-0.641,8.797,3.195,10.879c1.203,0.641,2.563,0.961,3.844,0.961c2.797,0,5.602-1.523,7.039-4.16   C313.758,128.283,312.32,123.405,308.476,121.323z" fill="#5c546a"/><path d="M103.758,250.123c0.164,0.078,0.242,0.078,0.32,0.078c4.32,0,7.844-3.438,8-7.68   c0.242-4.398-3.203-8.156-7.602-8.398c-4.398-0.156-8.156,3.281-8.398,7.68h0.078C95.922,246.201,99.359,249.967,103.758,250.123z" fill="#5c546a"/><path d="M359.601,313.404c1.039,0.477,2.234,0.719,3.359,0.719c3.039,0,5.914-1.68,7.281-4.563   c1.836-4,0.156-8.719-3.844-10.641c-4-1.914-8.719-0.156-10.641,3.844C353.836,306.686,355.601,311.482,359.601,313.404z" fill="#5c546a"/><path d="M361.68,208.123c1.039,3.359,4.156,5.523,7.516,5.523c0.883,0,1.68-0.164,2.563-0.406   c4.164-1.359,6.484-5.914,5.117-10.078c-1.438-4.242-5.914-6.477-10.156-5.117C362.555,199.404,360.242,203.881,361.68,208.123z" fill="#5c546a"/><path d="M383.68,238.842v-0.078c-0.242-4.398-4.078-7.758-8.484-7.438c-4.398,0.234-7.758,4.078-7.438,8.477   c0.242,4.242,3.758,7.523,7.922,7.523c0.242,0,0.398,0,0.563-0.086C380.64,247.006,384,243.24,383.68,238.842z" fill="#5c546a"/><path d="M373.601,281.561c3.758,0,7.117-2.719,7.836-6.555c0.883-4.32-2-8.484-6.32-9.359   c-4.398-0.805-8.563,2.078-9.359,6.398s2,8.555,6.398,9.359C372.64,281.483,373.117,281.561,373.601,281.561z" fill="#5c546a"/><path d="M358.797,181.405c3.758-2.398,4.805-7.359,2.484-11.117v0.078   c-2.406-3.766-7.359-4.805-11.125-2.484c-3.68,2.406-4.719,7.359-2.398,11.125c1.523,2.32,4.078,3.68,6.719,3.68   C356,182.686,357.515,182.201,358.797,181.405z" fill="#5c546a"/><path d="M338.398,329.881c0,0.086,0,0.086,0,0.086c-2.883,3.359-2.398,8.398,1.039,11.195   c1.438,1.281,3.281,1.922,5.117,1.922c2.242,0,4.563-1.039,6.086-2.883c2.875-3.438,2.398-8.477-0.961-11.281   C346.242,326.045,341.195,326.522,338.398,329.881z" fill="#5c546a"/><path d="M106.961,284.365c0.555,0,1.039-0.078,1.594-0.164c4.406-0.961,7.125-5.195,6.242-9.516   c-0.961-4.32-5.195-7.125-9.516-6.164c-4.32,0.883-7.125,5.125-6.164,9.523C99.922,281.725,103.195,284.365,106.961,284.365z" fill="#5c546a"/><path d="M185.836,373.084c-1.516,4.156,0.641,8.719,4.805,10.242c0.875,0.398,1.836,0.555,2.719,0.555   c3.281,0,6.32-2.078,7.516-5.281c1.523-4.156-0.633-8.797-4.719-10.234C192,366.842,187.359,368.92,185.836,373.084z" fill="#5c546a"/><path d="M109.836,216.365c3.445,0,6.641-2.242,7.68-5.68c1.281-4.242-1.117-8.719-5.359-10   c-4.156-1.281-8.641,1.117-9.914,5.359c-1.281,4.156,1.039,8.641,5.273,10C108.32,216.201,109.117,216.365,109.836,216.365z" fill="#5c546a"/><path d="M326.641,142.924c-3.039,3.199-2.805,8.32,0.398,11.281c1.516,1.438,3.516,2.16,5.438,2.16   c2.164,0,4.32-0.883,5.844-2.563c3.039-3.277,2.875-8.32-0.398-11.277C334.719,139.483,329.601,139.643,326.641,142.924z" fill="#5c546a"/><path d="M118.242,316.764c1.195,0,2.477-0.32,3.594-0.883c3.922-2,5.523-6.797,3.602-10.719   c-2-3.922-6.797-5.602-10.719-3.602c-4,2-5.602,6.805-3.602,10.727C112.477,315.084,115.359,316.764,118.242,316.764z" fill="#5c546a"/><path d="M314.719,351.967c-3.523,2.555-4.398,7.594-1.758,11.117c1.516,2.242,4,3.359,6.477,3.359   c1.602,0,3.281-0.477,4.641-1.523c3.602-2.555,4.398-7.594,1.844-11.117C323.359,350.201,318.32,349.404,314.719,351.967z" fill="#5c546a"/><path d="M156.32,355.561c-2.484,3.602-1.602,8.641,2.078,11.125c1.359,0.961,2.961,1.438,4.477,1.438   c2.563,0,5.047-1.203,6.641-3.523c2.484-3.594,1.602-8.555-2.078-11.117C163.836,351.006,158.797,351.881,156.32,355.561z" fill="#5c546a"/><path d="M24.078,308.045c-1.117-4.242-5.523-6.805-9.836-5.602c-4.242,1.203-6.727,5.602-5.523,9.844   c0.961,3.516,4.156,5.914,7.68,5.914c0.719,0,1.438-0.156,2.156-0.32C22.797,316.686,25.281,312.287,24.078,308.045z" fill="#5c546a"/><path d="M228.477,24.283c0.164,0,0.32,0,0.398,0c4.406-0.16,7.844-3.918,7.602-8.32   c-0.156-4.48-3.922-7.84-8.32-7.598c-4.477,0.16-7.836,3.918-7.68,8.316C220.719,21.002,224.242,24.283,228.477,24.283z" fill="#5c546a"/><path d="M373.758,68.284c1.359,1.121,3.039,1.602,4.719,1.602c2.484,0,4.883-1.121,6.484-3.203   c2.555-3.52,1.836-8.559-1.68-11.199c-3.523-2.641-8.563-1.918-11.203,1.602C369.437,60.682,370.156,65.725,373.758,68.284z" fill="#5c546a"/><path d="M196.797,28.045c0.484,0,0.961,0,1.445-0.16c4.313-0.801,7.195-4.961,6.398-9.281   c-0.805-4.398-5.039-7.199-9.359-6.398c-4.32,0.797-7.203,5.039-6.406,9.359C189.602,25.405,192.961,28.045,196.797,28.045z" fill="#5c546a"/><path d="M34.398,337.162c-1.758-4.078-6.477-5.922-10.477-4.156c-4.086,1.758-5.922,6.477-4.164,10.477   c1.281,3.039,4.242,4.883,7.281,4.883c1.117,0,2.156-0.242,3.203-0.719C34.32,345.881,36.156,341.162,34.398,337.162z" fill="#5c546a"/><path d="M317.836,458.123c-4.156,1.523-6.234,6.164-4.719,10.32c1.203,3.203,4.242,5.203,7.523,5.203   c0.875,0,1.836-0.164,2.797-0.484c4.078-1.602,6.242-6.156,4.719-10.32C326.641,458.686,322,456.6,317.836,458.123z" fill="#5c546a"/><path d="M226.797,471.647c-4.398-0.242-8.156,3.117-8.398,7.516s3.117,8.242,7.523,8.484   c0.156,0,0.234,0,0.398,0c4.234,0,7.758-3.281,8-7.523C234.555,475.725,231.195,471.881,226.797,471.647z" fill="#5c546a"/><path d="M347.758,51.643c1.203,0.641,2.563,0.961,3.844,0.961c2.797,0,5.594-1.52,7.039-4.16   c2.078-3.84,0.719-8.719-3.125-10.801c-3.914-2.16-8.797-0.801-10.875,3.121C342.476,44.604,343.922,49.483,347.758,51.643z" fill="#5c546a"/><path d="M257.68,471.326c-4.398,0.398-7.68,4.234-7.281,8.641c0.242,4.156,3.758,7.359,7.922,7.359   c0.234,0,0.398,0,0.641,0c4.398-0.406,7.68-4.242,7.359-8.641S262.078,471.006,257.68,471.326z" fill="#5c546a"/><path d="M9.195,223.006c0.406,0.078,0.727,0.078,1.125,0.078c3.922,0,7.359-2.883,7.922-6.883   c0.633-4.398-2.406-8.398-6.805-9.039s-8.398,2.398-9.039,6.805C1.758,218.287,4.797,222.365,9.195,223.006z" fill="#5c546a"/><path d="M7.922,254.92c4.477,0,8.078-3.516,8.078-7.914c0-4.484-3.523-8-7.922-8.086   c-4.477,0-8.078,3.602-8.078,8C0,251.326,3.516,254.92,7.922,254.92z" fill="#5c546a"/><path d="M11.039,286.764c4.398-0.563,7.516-4.562,6.883-8.961c-0.563-4.398-4.563-7.438-8.961-6.883   c-4.406,0.563-7.445,4.563-6.883,8.961c0.563,4.086,4,6.961,7.922,6.961C10.398,286.842,10.719,286.842,11.039,286.764z" fill="#5c546a"/><path d="M424,114.682c1.68,0,3.359-0.559,4.797-1.68c3.523-2.719,4.164-7.758,1.523-11.199   c-2.719-3.52-7.766-4.16-11.281-1.52c-3.438,2.719-4.078,7.762-1.438,11.281C419.195,113.565,421.515,114.682,424,114.682z" fill="#5c546a"/><path d="M37.68,361.881c-3.844,2.32-5.039,7.203-2.719,10.961c1.516,2.484,4.156,3.844,6.875,3.844   c1.359,0,2.805-0.32,4.164-1.125c3.758-2.32,4.961-7.273,2.641-11.039C46.32,360.764,41.438,359.561,37.68,361.881z" fill="#5c546a"/><path d="M402.797,90.682c2,0,4.078-0.797,5.68-2.316c3.039-3.203,3.039-8.242-0.078-11.363   c-3.203-3.117-8.242-3.039-11.359,0.082c-3.117,3.199-3.039,8.238,0.078,11.359C398.719,89.963,400.719,90.682,402.797,90.682z" fill="#5c546a"/><path d="M346,445.404c-3.922,2.078-5.359,6.961-3.281,10.883c1.438,2.633,4.242,4.156,7.117,4.156   c1.203,0,2.563-0.32,3.766-0.961c3.836-2.078,5.359-6.961,3.195-10.797C354.719,444.764,349.836,443.326,346,445.404z" fill="#5c546a"/><path d="M111.602,431.647c-3.602-2.563-8.563-1.68-11.125,1.914c-2.555,3.68-1.68,8.641,2,11.203   c1.359,0.961,2.961,1.438,4.563,1.438c2.477,0,4.961-1.195,6.563-3.438C116.156,439.162,115.195,434.201,111.602,431.647z" fill="#5c546a"/><path d="M372.078,428.92c-3.523,2.641-4.32,7.602-1.68,11.203c1.523,2.164,4,3.281,6.398,3.281   c1.68,0,3.281-0.484,4.719-1.523c3.602-2.641,4.406-7.68,1.766-11.195C380.64,427.084,375.68,426.365,372.078,428.92z" fill="#5c546a"/><path d="M441.68,141.244c1.359,0,2.719-0.32,3.922-1.039c3.836-2.16,5.195-7.043,3.039-10.883   c-2.242-3.84-7.125-5.199-10.961-2.957c-3.844,2.16-5.203,7.039-2.961,10.879C436.156,139.803,438.875,141.244,441.68,141.244z" fill="#5c546a"/><path d="M457.515,194.444c0.883,3.68,4.242,6.078,7.844,6.078c0.563,0,1.195-0.078,1.836-0.234   c4.32-1.047,6.961-5.367,5.922-9.688c-1.117-4.234-5.438-6.875-9.68-5.836C459.117,185.803,456.476,190.123,457.515,194.444z" fill="#5c546a"/><path d="M138.078,447.561c-3.922-2-8.797-0.477-10.797,3.445c-2,3.914-0.484,8.797,3.516,10.797   c1.125,0.563,2.398,0.883,3.602,0.883c2.883,0,5.68-1.602,7.117-4.398C143.516,454.365,142,449.561,138.078,447.561z" fill="#5c546a"/><path d="M448.156,165.084c-0.078,0-0.078,0-0.078,0c1.281,3.117,4.32,5.039,7.438,5.039   c1.039,0,2-0.242,2.961-0.563c4.164-1.68,6.164-6.32,4.484-10.477c-1.602-4.082-6.242-6.082-10.406-4.402   C448.476,156.283,446.476,160.92,448.156,165.084z" fill="#5c546a"/><path d="M55.281,388.6c-3.445,2.805-4,7.844-1.203,11.281c1.602,1.922,3.922,2.883,6.242,2.883   c1.758,0,3.516-0.563,5.039-1.758c3.438-2.805,3.922-7.844,1.117-11.281C63.68,386.287,58.641,385.803,55.281,388.6z" fill="#5c546a"/><path d="M14.797,191.483c0.719,0.242,1.445,0.32,2.164,0.32c3.516,0,6.719-2.242,7.758-5.758   c1.203-4.242-1.281-8.719-5.523-9.922c-4.234-1.203-8.641,1.203-9.914,5.523C8.078,185.881,10.555,190.287,14.797,191.483z" fill="#5c546a"/><path d="M259.758,24.924c0.242,0,0.484,0,0.719,0c4.078,0,7.602-3.121,8-7.281   c0.32-4.398-2.875-8.32-7.281-8.641c-4.398-0.398-8.32,2.801-8.719,7.281C252.078,20.604,255.359,24.526,259.758,24.924z" fill="#5c546a"/><path d="M473.213,224.076c0.148,0.007,0.295,0.022,0.442,0.033c0.251,0.017,0.502,0.032,0.751,0.057   c0.188,0.019,0.372,0.046,0.559,0.069c0.206,0.025,0.413,0.048,0.617,0.078c0.209,0.031,0.416,0.071,0.623,0.108   c0.176,0.031,0.354,0.059,0.529,0.094c0.228,0.046,0.452,0.099,0.677,0.151c0.151,0.035,0.303,0.067,0.453,0.104   c0.241,0.061,0.479,0.129,0.717,0.196c0.043,0.012,0.087,0.023,0.13,0.036c0.065-0.573,0.073-1.162,0.009-1.761   c-0.477-4.398-4.398-7.594-8.719-7.117c-4.484,0.398-7.602,4.32-7.203,8.719c0.032,0.331,0.092,0.652,0.164,0.97   c2.79-1.136,5.84-1.766,9.039-1.766C472.407,224.045,472.811,224.056,473.213,224.076z" fill="#5c546a"/><path d="M466.797,297.881c-4.32-1.117-8.641,1.445-9.758,5.766c-1.117,4.234,1.516,8.641,5.758,9.68   c0.719,0.234,1.359,0.32,2,0.32c3.602,0,6.805-2.406,7.758-6.086C473.601,303.326,471.039,298.92,466.797,297.881z" fill="#5c546a"/><path d="M427.601,384.764c-3.445-2.719-8.484-2.164-11.203,1.359c-2.719,3.438-2.156,8.477,1.359,11.203   c1.438,1.195,3.203,1.758,4.883,1.758c2.398,0,4.719-1.039,6.32-3.117C431.68,392.522,431.117,387.482,427.601,384.764z" fill="#5c546a"/><path d="M76.32,412.686c-3.039,3.195-2.805,8.234,0.398,11.281c1.523,1.438,3.523,2.156,5.438,2.156   c2.164,0,4.32-0.883,5.922-2.563c2.961-3.273,2.719-8.32-0.477-11.359C84.398,409.24,79.281,409.404,76.32,412.686z" fill="#5c546a"/><path d="M395.758,409.084c-3.203,3.039-3.281,8.078-0.242,11.281c1.602,1.602,3.68,2.477,5.766,2.477   c2,0,4-0.797,5.516-2.32c3.203-3.039,3.281-8.078,0.242-11.281C403.922,406.045,398.875,405.967,395.758,409.084z" fill="#5c546a"/><path d="M457.758,328.6c-4.078-1.758-8.719,0.242-10.398,4.32c-1.68,4.086,0.242,8.805,4.32,10.484   c1.039,0.398,2.078,0.563,3.039,0.563c3.203,0,6.156-1.844,7.438-4.961C463.836,334.92,461.836,330.201,457.758,328.6z" fill="#5c546a"/><path d="M463.425,270.462c-0.451,0.865-0.759,1.826-0.871,2.865c-0.477,4.32,2.727,8.32,7.125,8.797   c0.242,0.078,0.563,0.078,0.875,0.078c4,0,7.523-3.039,7.922-7.117c0.146-1.33-0.042-2.621-0.491-3.792   c-1.914,0.491-3.919,0.753-5.986,0.753C468.978,272.045,466.089,271.481,463.425,270.462z" fill="#5c546a"/><path d="M444.64,357.725c-3.844-2.242-8.719-0.961-10.883,2.875c-2.242,3.844-0.961,8.727,2.797,10.961   c1.281,0.727,2.727,1.039,4.086,1.039c2.719,0,5.438-1.438,6.875-4C449.758,364.842,448.476,359.881,444.64,357.725z" fill="#5c546a"/><path d="M196.242,467.803c0-0.078,0-0.078,0-0.078c-4.406-0.805-8.563,2-9.445,6.32   c-0.875,4.32,2,8.555,6.32,9.438c0.484,0.078,1.039,0.078,1.523,0.164c3.758,0,7.117-2.641,7.836-6.484   C203.359,472.842,200.555,468.6,196.242,467.803z" fill="#5c546a"/><path d="M165.836,36.123c0.805,0,1.68-0.078,2.563-0.398c4.156-1.441,6.398-5.922,5.039-10.16   c-1.438-4.16-6-6.402-10.156-4.961c-4.164,1.359-6.484,5.922-5.039,10.078C159.359,34.045,162.477,36.123,165.836,36.123z" fill="#5c546a"/><path d="M24.719,161.084c1.039,0.477,2.156,0.719,3.203,0.719c3.117,0,6-1.758,7.359-4.801   c1.758-4-0.086-8.719-4.086-10.559c-4.078-1.762-8.797,0.082-10.555,4.082C18.797,154.604,20.641,159.323,24.719,161.084z" fill="#5c546a"/><path d="M83.758,84.526c1.922,0,3.844-0.641,5.359-2.082c3.281-2.961,3.523-8,0.563-11.281   c-3.039-3.277-8.078-3.52-11.359-0.48c-3.281,2.961-3.523,8-0.484,11.281C79.359,83.643,81.516,84.526,83.758,84.526z" fill="#5c546a"/><path d="M56.477,105.803c1.523,1.281,3.359,1.84,5.125,1.84c2.32,0,4.641-0.961,6.234-2.879   c2.805-3.359,2.32-8.398-1.117-11.281c-3.359-2.801-8.398-2.32-11.203,1.043C52.641,97.963,53.117,103.002,56.477,105.803z" fill="#5c546a"/><path d="M38.719,132.366c1.281,0.797,2.719,1.199,4.156,1.199c2.727,0,5.281-1.359,6.805-3.762   c2.398-3.758,1.195-8.719-2.563-11.039c-3.68-2.32-8.641-1.199-10.961,2.559C33.758,125.084,34.961,130.045,38.719,132.366z" fill="#5c546a"/><path d="M166.398,459.647c-4.156-1.445-8.719,0.797-10.156,4.953c-1.445,4.164,0.719,8.727,4.953,10.242   c0.883,0.242,1.766,0.398,2.563,0.398c3.359,0,6.398-2.078,7.602-5.359C172.797,465.647,170.641,461.162,166.398,459.647z" fill="#5c546a"/><path d="M136.32,48.444c1.195,0,2.398-0.238,3.602-0.879c3.914-1.922,5.516-6.801,3.516-10.723   c-1.922-3.918-6.719-5.52-10.719-3.598v0.078c-3.922,1.922-5.523,6.723-3.523,10.723C130.555,46.842,133.438,48.444,136.32,48.444z   " fill="#5c546a"/><path d="M319.758,38.682c0.961,0.32,1.922,0.48,2.883,0.48c3.195,0,6.234-1.918,7.438-5.117   c1.602-4.16-0.477-8.801-4.563-10.32c-4.156-1.602-8.797,0.48-10.32,4.641C313.601,32.444,315.68,37.084,319.758,38.682z" fill="#5c546a"/><path d="M108.797,64.682c1.523,0,3.125-0.477,4.484-1.438c3.68-2.48,4.555-7.441,2.078-11.121   c-2.484-3.598-7.438-4.559-11.117-2c-3.602,2.48-4.563,7.441-2.086,11.121C103.758,63.483,106.242,64.682,108.797,64.682z" fill="#5c546a"/><path d="M288.242,466.842c-4.32,0.961-7.047,5.203-6.086,9.523c0.805,3.758,4.086,6.32,7.766,6.32   c0.555,0,1.195-0.086,1.758-0.242c4.32-0.961,7.039-5.203,6.078-9.523S292.555,465.881,288.242,466.842z" fill="#5c546a"/><path d="M290.242,29.725c0.633,0.16,1.195,0.16,1.836,0.16c3.602,0,6.883-2.48,7.758-6.16   c0.961-4.32-1.68-8.641-6-9.602s-8.641,1.68-9.594,6C283.281,24.444,285.922,28.682,290.242,29.725z" fill="#5c546a"/><path d="M261.285,162.643c14.947,3.72,28.381,11.267,39.214,21.531c-3.488-0.42-7.031-0.662-10.632-0.662   c-48.601,0-88,39.399-88,88c0,25.158,10.575,47.833,27.501,63.871c-28.588-3.446-52.96-20.588-66.346-44.676   c15.017,27.038,43.858,45.338,76.979,45.338c48.601,0,88-39.399,88-88C328,206.784,299.601,172.162,261.285,162.643z" fill="#708aff"/><path d="M229.367,335.383c-16.926-16.038-27.501-38.713-27.501-63.871c0-48.601,39.399-88,88-88   c3.601,0,7.144,0.242,10.632,0.662c-10.833-10.264-24.267-17.811-39.214-21.531c-0.034-0.008-0.068-0.016-0.102-0.025   c-1.316-0.326-2.643-0.622-3.982-0.887c-0.066-0.013-0.133-0.025-0.2-0.038c-1.316-0.258-2.641-0.488-3.977-0.686   c-0.084-0.012-0.168-0.023-0.252-0.035c-1.328-0.193-2.665-0.359-4.011-0.493c-0.082-0.008-0.165-0.014-0.247-0.022   c-1.357-0.13-2.722-0.233-4.097-0.301c-0.056-0.003-0.112-0.004-0.168-0.006c-1.408-0.067-2.823-0.104-4.248-0.104   c-48.601,0-88,39.399-88,88c0,1.324,0.035,2.64,0.093,3.95c0.005,0.118,0.008,0.237,0.013,0.354c0.06,1.248,0.15,2.487,0.262,3.72   c0.016,0.171,0.029,0.343,0.046,0.515c0.116,1.204,0.258,2.399,0.422,3.588c0.026,0.188,0.052,0.376,0.079,0.564   c0.171,1.184,0.365,2.361,0.583,3.53c0.032,0.173,0.066,0.346,0.1,0.52c0.229,1.187,0.479,2.366,0.754,3.536   c0.031,0.13,0.064,0.259,0.095,0.389c0.292,1.214,0.606,2.42,0.948,3.615c0.013,0.044,0.027,0.088,0.04,0.133   c0.724,2.51,1.556,4.973,2.492,7.385c0.018,0.046,0.034,0.092,0.052,0.137c0.46,1.179,0.946,2.345,1.454,3.498   c0.03,0.069,0.06,0.138,0.09,0.207c0.51,1.148,1.043,2.283,1.6,3.405c0.029,0.059,0.059,0.118,0.088,0.178   c0.569,1.14,1.161,2.267,1.778,3.379c0.011,0.02,0.022,0.039,0.033,0.059C176.408,314.795,200.779,331.937,229.367,335.383z" fill="#3d6edd"/><path d="M119.25,111.722c-1.11-0.134-2.237-0.211-3.383-0.211c-15.464,0-28,12.536-28,28   c0,8.005,3.365,15.22,8.75,20.323c-3.897-0.47-7.548-1.74-10.783-3.64c0.35,0.206,0.704,0.406,1.064,0.596   c3.91,2.075,8.368,3.254,13.102,3.254c15.464,0,28-12.536,28-28c0-6.778-2.409-12.993-6.417-17.837   C120.858,113.331,120.075,112.504,119.25,111.722z" fill="#ffedb9"/><path d="M74.302,143.169c0.085,0.195,0.174,0.388,0.263,0.581c0.095,0.207,0.19,0.413,0.29,0.617   c0.088,0.179,0.181,0.355,0.273,0.532c0.11,0.212,0.218,0.424,0.333,0.633c0.085,0.155,0.176,0.306,0.264,0.459   c0.13,0.226,0.258,0.453,0.394,0.674c0.058,0.095,0.121,0.187,0.18,0.281c0.61,0.967,1.273,1.898,1.994,2.78   c0.003,0.003,0.005,0.007,0.008,0.01c0.224,0.274,0.455,0.541,0.688,0.806c0.039,0.045,0.076,0.092,0.116,0.136   c0.009,0.01,0.018,0.019,0.026,0.028c0.224,0.25,0.454,0.494,0.687,0.735c0.062,0.064,0.122,0.13,0.184,0.193   c0.231,0.236,0.469,0.466,0.708,0.694c0.067,0.064,0.133,0.128,0.2,0.191c0.243,0.227,0.492,0.448,0.743,0.667   c0.066,0.057,0.131,0.115,0.198,0.171c0.258,0.22,0.521,0.435,0.787,0.646c0.062,0.049,0.124,0.098,0.186,0.146   c0.276,0.214,0.555,0.424,0.838,0.628c0.053,0.038,0.106,0.075,0.159,0.113c0.297,0.211,0.599,0.417,0.904,0.616   c0.035,0.023,0.07,0.044,0.104,0.067c0.327,0.211,0.657,0.417,0.993,0.614c0.004,0.002,0.007,0.004,0.011,0.006   c3.235,1.901,6.886,3.17,10.783,3.64c-5.386-5.103-8.75-12.318-8.75-20.323c0-15.464,12.536-28,28-28   c1.146,0,2.273,0.077,3.383,0.211l0,0c0,0,0,0,0,0c-0.311-0.295-0.629-0.583-0.953-0.863c-0.005-0.004-0.01-0.009-0.015-0.013   c-0.319-0.275-0.644-0.543-0.975-0.804c-0.013-0.01-0.025-0.02-0.038-0.03c-0.323-0.254-0.653-0.501-0.988-0.741   c-0.024-0.017-0.047-0.034-0.071-0.051c-0.325-0.232-0.656-0.457-0.991-0.675c-0.036-0.023-0.072-0.046-0.108-0.069   c-0.326-0.209-0.656-0.413-0.99-0.609c-0.05-0.029-0.1-0.057-0.15-0.086c-0.323-0.187-0.65-0.368-0.982-0.542   c-0.067-0.035-0.135-0.069-0.202-0.103c-0.318-0.164-0.638-0.323-0.963-0.474c-0.086-0.04-0.174-0.078-0.26-0.118   c-0.311-0.141-0.623-0.279-0.939-0.409c-0.105-0.043-0.212-0.083-0.318-0.125c-0.302-0.12-0.604-0.237-0.911-0.346   c-0.128-0.046-0.258-0.087-0.387-0.131c-0.29-0.099-0.58-0.196-0.874-0.285c-0.151-0.046-0.304-0.086-0.456-0.13   c-0.277-0.079-0.554-0.158-0.834-0.229c-0.176-0.044-0.355-0.082-0.533-0.123c-0.261-0.06-0.522-0.122-0.786-0.175   c-0.204-0.041-0.411-0.074-0.617-0.11c-0.242-0.043-0.484-0.089-0.728-0.126c-0.237-0.035-0.477-0.061-0.716-0.091   c-0.218-0.027-0.435-0.059-0.654-0.08c-0.288-0.029-0.578-0.046-0.868-0.066c-0.175-0.012-0.349-0.03-0.525-0.039   c-0.469-0.023-0.94-0.036-1.414-0.036c-15.464,0-28,12.536-28,28c0,0.466,0.013,0.929,0.035,1.39   c0.008,0.154,0.022,0.305,0.032,0.458c0.02,0.305,0.04,0.611,0.069,0.914c0.018,0.183,0.043,0.365,0.064,0.547   c0.032,0.269,0.063,0.538,0.102,0.805c0.028,0.193,0.063,0.385,0.095,0.576c0.043,0.253,0.086,0.505,0.135,0.755   c0.039,0.198,0.083,0.394,0.126,0.59c0.053,0.24,0.107,0.48,0.166,0.718c0.05,0.2,0.103,0.399,0.157,0.597   c0.062,0.229,0.126,0.458,0.194,0.685c0.06,0.201,0.123,0.402,0.188,0.602c0.071,0.219,0.145,0.436,0.221,0.653   c0.072,0.203,0.144,0.405,0.22,0.606c0.078,0.208,0.16,0.413,0.244,0.618C74.131,142.763,74.215,142.967,74.302,143.169z" fill="#ffd586"/><path d="M496,248.045c0-7.259-3.227-13.76-8.319-18.161c0.279,0.241,0.552,0.488,0.819,0.741   c-0.951-0.115-1.918-0.181-2.9-0.181c-13.255,0-24,10.745-24,24c0,6.861,2.884,13.045,7.5,17.419   c-3.705-0.447-7.149-1.738-10.137-3.673c1.395,0.904,2.888,1.668,4.462,2.271c2.664,1.02,5.552,1.583,8.574,1.583   c2.067,0,4.072-0.262,5.986-0.753C488.344,268.633,496,259.233,496,248.045z" fill="#ff7400"/><path d="M469.1,271.865c-4.616-4.374-7.5-10.558-7.5-17.419c0-13.255,10.745-24,24-24   c0.982,0,1.948,0.066,2.9,0.181c-0.267-0.253-0.54-0.5-0.819-0.741c-0.003-0.003-0.006-0.005-0.009-0.008   c-0.274-0.237-0.554-0.467-0.838-0.691c-0.01-0.008-0.021-0.016-0.031-0.025c-0.278-0.218-0.561-0.43-0.848-0.636   c-0.02-0.014-0.039-0.028-0.059-0.042c-0.28-0.199-0.563-0.392-0.852-0.579c-0.03-0.02-0.061-0.039-0.092-0.059   c-0.279-0.18-0.563-0.354-0.85-0.522c-0.042-0.025-0.085-0.049-0.128-0.073c-0.277-0.16-0.558-0.316-0.842-0.465   c-0.057-0.03-0.114-0.058-0.171-0.088c-0.273-0.141-0.549-0.277-0.828-0.408c-0.072-0.034-0.146-0.066-0.219-0.099   c-0.267-0.122-0.536-0.24-0.808-0.352c-0.09-0.037-0.181-0.071-0.272-0.107c-0.259-0.103-0.519-0.203-0.783-0.297   c-0.109-0.039-0.22-0.074-0.329-0.111c-0.249-0.085-0.498-0.168-0.751-0.245c-0.086-0.026-0.174-0.05-0.261-0.075   c-0.043-0.012-0.087-0.023-0.13-0.036c-0.238-0.068-0.476-0.136-0.717-0.196c-0.15-0.038-0.302-0.07-0.453-0.104   c-0.225-0.052-0.45-0.105-0.677-0.151c-0.175-0.035-0.353-0.063-0.529-0.094c-0.207-0.037-0.414-0.076-0.623-0.108   c-0.204-0.031-0.411-0.053-0.617-0.078c-0.186-0.023-0.371-0.05-0.559-0.069c-0.249-0.025-0.5-0.04-0.751-0.057   c-0.148-0.01-0.294-0.025-0.442-0.033c-0.402-0.02-0.806-0.031-1.213-0.031c-3.198,0-6.248,0.631-9.039,1.766   C454.187,229.382,448,237.989,448,248.045c0,0.723,0.038,1.436,0.1,2.142c0.006,0.063,0.008,0.128,0.015,0.191   c0.065,0.672,0.162,1.333,0.281,1.988c0.017,0.091,0.031,0.182,0.049,0.273c0.124,0.638,0.275,1.266,0.448,1.884   c0.027,0.096,0.054,0.192,0.082,0.288c0.181,0.615,0.384,1.22,0.612,1.813c0.033,0.086,0.068,0.172,0.102,0.258   c0.239,0.601,0.498,1.192,0.782,1.769c0.03,0.06,0.061,0.119,0.091,0.179c0.302,0.599,0.624,1.185,0.973,1.754   c0.009,0.015,0.02,0.03,0.029,0.045c0.737,1.194,1.576,2.319,2.505,3.362c0.012,0.014,0.024,0.028,0.037,0.042   c0.456,0.51,0.935,0.999,1.433,1.468c0.025,0.024,0.05,0.048,0.076,0.072c0.496,0.464,1.013,0.907,1.547,1.328   c0.026,0.021,0.053,0.042,0.079,0.062c0.543,0.424,1.103,0.825,1.682,1.202c0.014,0.009,0.028,0.018,0.041,0.027   C461.951,270.127,465.395,271.418,469.1,271.865z" fill="#d55a00"/><path d="M237.1,407.864c-3.704-0.447-7.148-1.737-10.135-3.672   C229.952,406.129,233.395,407.418,237.1,407.864z" fill="#ffd042"/><path d="M264,384.045c0-0.294-0.012-0.585-0.022-0.876c-0.004-0.113-0.003-0.227-0.009-0.339   c-0.338-6.767-3.482-12.791-8.289-16.945c0.279,0.241,0.552,0.488,0.819,0.741c-0.951-0.115-1.918-0.181-2.9-0.181   c-13.255,0-24,10.745-24,24c0,6.861,2.884,13.045,7.5,17.419c0.951,0.115,1.918,0.181,2.9,0.181   C253.255,408.045,264,397.3,264,384.045z" fill="#ffd042"/><path d="M229.6,390.445c0-13.255,10.745-24,24-24c0.982,0,1.948,0.066,2.9,0.181   c-0.267-0.253-0.54-0.5-0.819-0.741c-0.003-0.003-0.006-0.005-0.009-0.008c-0.274-0.237-0.554-0.467-0.838-0.691   c-0.01-0.008-0.021-0.016-0.031-0.025c-0.278-0.218-0.561-0.43-0.848-0.636c-0.02-0.014-0.039-0.028-0.059-0.042   c-0.28-0.199-0.563-0.392-0.852-0.579c-0.03-0.02-0.061-0.039-0.092-0.059c-0.279-0.18-0.562-0.354-0.849-0.522   c-0.043-0.025-0.086-0.049-0.129-0.074c-0.277-0.16-0.557-0.315-0.841-0.464c-0.057-0.03-0.115-0.059-0.173-0.088   c-0.273-0.141-0.548-0.277-0.827-0.407c-0.072-0.034-0.146-0.066-0.219-0.099c-0.267-0.122-0.536-0.24-0.808-0.352   c-0.09-0.037-0.182-0.071-0.272-0.107c-0.259-0.103-0.519-0.203-0.782-0.297c-0.109-0.039-0.219-0.074-0.329-0.111   c-0.249-0.085-0.499-0.168-0.751-0.245c-0.129-0.039-0.261-0.074-0.391-0.111c-0.237-0.068-0.475-0.135-0.715-0.196   c-0.15-0.038-0.303-0.07-0.455-0.105c-0.224-0.052-0.448-0.105-0.675-0.15c-0.175-0.035-0.353-0.063-0.53-0.095   c-0.207-0.037-0.413-0.076-0.622-0.107c-0.204-0.031-0.411-0.053-0.617-0.078c-0.186-0.023-0.371-0.05-0.559-0.069   c-0.249-0.025-0.5-0.04-0.751-0.057c-0.148-0.01-0.294-0.025-0.442-0.032c-0.402-0.02-0.806-0.031-1.213-0.031   c-13.255,0-24,10.745-24,24c0,0.723,0.038,1.436,0.1,2.142c0.006,0.064,0.008,0.128,0.015,0.191   c0.065,0.672,0.162,1.333,0.281,1.988c0.017,0.091,0.031,0.182,0.049,0.273c0.124,0.638,0.275,1.266,0.448,1.884   c0.027,0.096,0.054,0.192,0.082,0.288c0.181,0.615,0.384,1.22,0.612,1.813c0.033,0.086,0.068,0.172,0.102,0.258   c0.239,0.601,0.498,1.192,0.782,1.769c0.03,0.06,0.061,0.119,0.091,0.179c0.302,0.598,0.624,1.185,0.973,1.753   c0.01,0.016,0.02,0.031,0.03,0.047c0.737,1.194,1.576,2.318,2.504,3.361c0.013,0.014,0.024,0.028,0.037,0.042   c0.456,0.51,0.935,0.998,1.432,1.467c0.026,0.024,0.051,0.049,0.077,0.073c0.496,0.464,1.012,0.906,1.546,1.326   c0.027,0.021,0.054,0.042,0.081,0.063c0.542,0.423,1.102,0.825,1.68,1.201c0.014,0.009,0.029,0.018,0.043,0.028   c2.987,1.935,6.431,3.226,10.135,3.672c0,0,0,0,0,0h0C232.484,403.49,229.6,397.306,229.6,390.445z" fill="#dbb246"/></g><g transform="matrix(-0.07883384078741074 0 0 0.07883384078741074 122.9155044555664 30.094039916992188)" id="L1_2"><path d="M392.001,84.32 347.315,129.006 392.001,173.693z" fill="none"/><path d="M291.317,73.007 336.002,117.694 380.689,73.007z" fill="none"/><path d="M380.689,73.007l-44.686,44.686l5.657,5.658l0,0l5.655,5.655l44.686-44.686v89.374l16,16V68.32   l21.654-21.654c-4.942-2.365-8.947-6.371-11.312-11.313l-21.654,21.654H275.317l16,16H380.689z" fill="#ff9300"/><path d="M208.004,209.007c13.086,0,24.703,6.285,32,16l76-76L187.529,20.533   c3.867-5.296,7.929-10.482,12.417-15.405C145.584,64.744,136.66,153.781,177.712,222.9   C185.048,214.397,195.893,209.007,208.004,209.007z" fill="#d5d9de"/><path d="M429.655,46.666c3.134,1.5,6.643,2.341,10.348,2.341c13.255,0,24-10.745,24-24s-10.745-24-24-24   s-24,10.745-24,24c0,3.705,0.841,7.213,2.34,10.346C420.708,40.295,424.713,44.301,429.655,46.666z" fill="#ffcf00"/><path d="M247.983,248.204c0.005,0.268,0.02,0.534,0.02,0.803c0,22.092-17.909,40-40,40s-40-17.908-40-40   c0-0.278,0.015-0.552,0.021-0.829l-30.753,176.829h141.46l-22.646-130.214L247.983,248.204z" fill="#888693"/><path d="M120.002,425.007c-8.82,0-16,7.176-16,16v24h208v-24c0-8.824-7.18-16-16-16h-17.27h-141.46H120.002z   " fill="#b6b8be"/><path d="M80.002,465.007c-13.234,0-24,10.766-24,24h304c0-13.234-10.766-24-24-24h-24h-208H80.002z" fill="#888693"/><path d="M48.002,489.007c-4.422,0-8,3.582-8,8s3.578,8,8,8h320c4.422,0,8-3.582,8-8s-3.578-8-8-8h-8h-304   H48.002z" fill="#5c546a"/><path d="M208.004,289.007c22.091,0,40-17.908,40-40c0-0.269-0.015-0.535-0.02-0.803l8.102,46.589   c25.517,12.37,52.864,18.472,80.064,18.472c44.633-0.004,88.836-16.383,123.734-48.207c-3.52,3.21-7.198,6.15-10.898,9.044   c-1.482,1.146-2.95,2.32-4.455,3.425l-0.004,0.003L316.004,149.007l25.656-25.656l-5.657-5.658l-44.686-44.686l-16-16   L223.033,4.722c-3.094-3.098-7.438-4.852-11.789-4.715c-4.375,0.105-8.383,1.926-11.297,5.121   c-4.489,4.922-8.551,10.109-12.417,15.405l128.474,128.474l-76,76c-7.298-9.715-18.914-16-32-16   c-12.111,0-22.956,5.39-30.291,13.893c-5.876,6.812-9.491,15.623-9.688,25.278c-0.006,0.277-0.021,0.551-0.021,0.829   C168.004,271.099,185.912,289.007,208.004,289.007z M224.004,249.007c0,8.837-7.163,16-16,16s-16-7.163-16-16   c0-8.836,7.163-16,16-16S224.004,240.171,224.004,249.007z" fill="#b6b8be"/><circle cx="208" cy="249" r="16" fill="#5c546a"/><path d="M347.315,129.006l-5.655-5.655l0,0l-25.656,25.656l128.523,128.524l0.004-0.003   c1.504-1.105,2.972-2.279,4.455-3.425c3.7-2.895,7.378-5.834,10.898-9.044c3.203-2.918,5.023-6.938,5.117-11.313   c0.102-4.383-1.617-8.672-4.711-11.762l-52.289-52.29l-16-16L347.315,129.006z" fill="#888693"/></g><g transform="matrix(0.1171875 0 0 0.1171875 30 187)" id="L1_3"><path d="M340.299,384l-76.127-137.023c-0.018,0.005-0.035,0.01-0.052,0.015V384H340.299z" fill="none"/><path d="M248.12,384V246.992c-0.02-0.005-0.04-0.012-0.06-0.017L171.936,384H248.12z" fill="none"/><path d="M264.12,384 264.12,400 349.188,400 340.299,384z" fill="#888693"/><path d="M171.936,384 163.048,400 248.12,400 248.12,384z" fill="#888693"/><path d="M504.166,62.273c-8.96-21.619-25.374-39.016-46.409-49.328l48.474,117.02   C513.815,107.806,513.125,83.895,504.166,62.273z" fill="#48bbee"/><path d="M133.659,217.722 386.112,111.749 364.494,59.556 103.448,169.137 112.04,165.53z" fill="#b6b8be"/><path d="M386.336,112.29L386.336,112.29l-0.224-0.541L133.659,217.722l0.105,0.253h0L154.899,269   l-8.561,3.594l85.418-35.856c-4.76-5.586-7.639-12.824-7.639-20.738c0-17.673,14.327-32,32-32   c16.707,0,30.416,12.805,31.866,29.135l119.369-50.108c-0.004-0.01-0.01-0.021-0.014-0.031L386.336,112.29z" fill="#888693"/><path d="M386.336,112.29l95.897-40.256l27.316,65.943l-3.319-8.011l-48.474-117.02l-3.317-8.008   c-0.813-1.961-2.367-3.516-4.328-4.328c-1.969-0.813-4.156-0.813-6.125,0l-66.516,27.555c-5.922,2.449-10.531,7.063-12.992,12.984   c-2.453,5.922-2.453,12.449,0,18.371l0.015,0.036l21.618,52.193L386.336,112.29z" fill="#ff4f19"/><path d="M46.109,218.865 46.112,218.871 70.604,277.992 70.604,277.993 122.349,256.56    97.853,197.433z" fill="#5c546a"/><path d="M248.06,246.975c-5.327-1.382-10.109-4.107-13.979-7.785L89.127,500.113   c-2.148,3.863-0.758,8.734,3.109,10.879c1.227,0.684,2.563,1.008,3.875,1.008c2.813,0,5.539-1.484,7-4.113L163.048,400l8.889-16   L248.06,246.975z" fill="#5c546a"/><path d="M340.299,384l8.889,16l59.939,107.887c1.461,2.629,4.188,4.113,7,4.113   c1.313,0,2.648-0.324,3.875-1.008c3.867-2.145,5.258-7.016,3.109-10.879l-144.96-260.919c-3.869,3.677-8.652,6.401-13.979,7.782   L340.299,384z" fill="#5c546a"/><path d="M264.12,246.991c-2.558,0.658-5.239,1.009-8.001,1.009c-2.762,0-5.442-0.35-7.999-1.008V384v16v104   c0,4.418,3.578,8,8,8s8-3.582,8-8V400v-16V246.991z" fill="#5c546a"/><path d="M110.423,227.774l23.341-9.798l-0.105-0.253L112.04,165.53l-8.593,3.607   c-3.945,1.637-7.023,4.711-8.656,8.656c-1.641,3.953-1.641,8.305,0,12.25l3.062,7.39l24.496,59.127l3.06,7.385L110.423,227.774z" fill="#ff4f19"/><path d="M133.765,217.976L133.765,217.976l-23.341,9.798l14.985,36.171c1.633,3.953,4.703,7.027,8.656,8.664   c1.969,0.816,4.039,1.227,6.109,1.227c2.086,0,4.172-0.414,6.164-1.242l8.561-3.594L133.765,217.976z" fill="#e5001e"/><path d="M482.233,72.034l-95.897,40.256h0l21.002,50.707c0.005,0.011,0.01,0.021,0.014,0.031   c3.835,9.211,12.778,14.781,22.197,14.781c3.055,0,6.156-0.586,9.148-1.824l66.523-27.555c1.961-0.813,3.516-2.367,4.328-4.328   s0.813-4.164,0-6.125L482.233,72.034z" fill="#e5001e"/><path d="M58.666,249.176l11.938,28.816l-24.492-59.121c-0.001-0.002-0.002-0.004-0.003-0.006   c-3.369-8.148-12.749-12.029-20.904-8.662l-14.781,6.125c-8.141,3.379-12.023,12.754-8.656,20.906l24.492,59.121l-11.936-28.813   L58.666,249.176z" fill="#ff4f19"/><path d="M58.666,249.176l-44.342,18.367l11.936,28.813c1.633,3.953,4.703,7.031,8.656,8.664   c1.977,0.82,4.047,1.227,6.125,1.227c2.07,0,4.148-0.41,6.125-1.227l14.781-6.125c3.953-1.633,7.023-4.707,8.656-8.656   c1.641-3.949,1.641-8.3,0-12.245c0,0,0-0.001,0-0.001L58.666,249.176z" fill="#e5001e"/><path d="M256.118,184c-17.673,0-32,14.327-32,32c0,7.914,2.879,15.152,7.639,20.738   c0.731,0.858,1.508,1.677,2.325,2.453c3.869,3.678,8.651,6.403,13.979,7.785c0.02,0.005,0.04,0.012,0.06,0.017   c2.556,0.658,5.237,1.008,7.999,1.008c2.763,0,5.444-0.35,8.001-1.009c0.018-0.005,0.035-0.01,0.052-0.015   c5.327-1.381,10.11-4.105,13.979-7.782c6.135-5.83,9.967-14.062,9.967-23.194c0-0.966-0.05-1.921-0.134-2.865   C286.534,196.805,272.825,184,256.118,184z M256.118,232c-8.836,0-16-7.164-16-16c0-8.837,7.164-16,16-16s16,7.163,16,16   C272.118,224.836,264.954,232,256.118,232z" fill="#b6b8be"/><circle cx="256" cy="216" r="16" fill="#5c546a"/></g><g transform="matrix(0.11719459295272827 0 0 0.11719459295272827 228.99998474121094 183)" id="L1_4"><path d="M403.27,206.581l-84.109-84.109c-2.36,4.328-3.505,9.139-3.436,13.939l84.109,84.109   C399.765,215.72,400.91,210.909,403.27,206.581z" fill="#fff294"/><path d="M428.522,191.833l-84.109-84.109c-4.8-0.069-9.611,1.076-13.939,3.436l84.109,84.109   C418.911,192.909,423.722,191.763,428.522,191.833z" fill="#fff294"/><path d="M399.835,220.52l32.427,32.427c-0.334-9.41,1.81-18.329,7.631-24.15   c4.879-4.879,11.505-6.901,18.656-6.938l-30.026-30.026c-4.8-0.069-9.611,1.076-13.939,3.436l11.075,11.075   c3.125,3.125,3.125,8.188,0,11.313c-1.563,1.563-3.609,2.344-5.656,2.344s-4.094-0.781-5.656-2.344l-11.075-11.075   C400.91,210.909,399.765,215.72,399.835,220.52z" fill="#ffffff"/><path d="M220.522,399.833l-84.109-84.109c-4.8-0.069-9.611,1.076-13.939,3.436l84.109,84.109   C210.911,400.909,215.722,399.763,220.522,399.833z" fill="#fff294"/><path d="M195.27,414.581l-84.109-84.109c-2.36,4.328-3.505,9.139-3.436,13.939l84.109,84.109   C191.765,423.72,192.91,418.909,195.27,414.581z" fill="#fff294"/><path d="M206.583,403.268l11.075,11.075c3.125,3.125,3.125,8.188,0,11.312   c-1.563,1.563-3.609,2.344-5.656,2.344s-4.094-0.781-5.656-2.344l-11.075-11.075c-2.36,4.328-3.505,9.139-3.436,13.939   l32.427,32.427c-0.333-9.409,1.81-18.328,7.631-24.149c4.88-4.88,11.506-6.902,18.657-6.938l-30.027-30.027   C215.722,399.763,210.911,400.909,206.583,403.268z" fill="#ffffff"/><path d="M229.681,298.367l147.349,147.349c-2.802-10.673-4.001-21.588-2.918-31.605l-8.455-8.455   c-1.563,1.563-3.609,2.344-5.656,2.344s-4.094-0.781-5.656-2.344L230.948,282.259l-8.992,8.992c-1.605,1.605-2.26,3.794-1.98,5.882   C223.042,295.329,227.048,295.734,229.681,298.367z" fill="#fff294"/><path d="M405.658,365.656l8.457,8.457c10.016-1.083,20.931,0.115,31.603,2.915L298.369,229.68   c-2.633-2.633-3.039-6.639-1.234-9.705c-2.088-0.279-4.278,0.376-5.882,1.98l-8.992,8.992l123.397,123.397   C408.783,357.469,408.783,362.531,405.658,365.656z" fill="#fff294"/><path d="M346.692,335.378c4.328-2.36,9.139-3.505,13.939-3.436L218.338,189.648   c-3.125-3.125-3.125-8.188,0-11.313h0l-12.664-12.664v0c-1.563,1.563-3.609,2.344-5.656,2.344s-4.094-0.781-5.656-2.344   l-13.948-13.948c-4.8-0.069-9.611,1.076-13.939,3.436L346.692,335.378z" fill="#fff294"/><path d="M331.944,360.629c-0.069-4.8,1.076-9.611,3.436-13.939L155.161,166.472   c-2.36,4.328-3.505,9.139-3.436,13.939L331.944,360.629z" fill="#fff294"/><path d="M414.115,374.113l-8.457-8.457c-1.563,1.563-3.609,2.344-5.656,2.344s-4.094-0.781-5.656-2.344   l-33.714-33.714c-4.8-0.069-9.611,1.076-13.939,3.436l26.966,26.966c3.125,3.125,3.125,8.188,0,11.313   c-1.562,1.563-3.609,2.344-5.656,2.344s-4.094-0.781-5.656-2.344l-26.966-26.966c-2.36,4.328-3.505,9.139-3.436,13.939   l33.714,33.714c3.125,3.125,3.125,8.188,0,11.313l8.455,8.455c1.164-10.768,4.962-20.497,12.232-27.768   C393.616,379.075,403.346,375.278,414.115,374.113z" fill="#ffffff"/><path d="M58.346,69.656C59.908,71.219,61.955,72,64.002,72s4.094-0.781,5.656-2.344   c3.125-3.125,3.125-8.188,0-11.313l-56-56c-3.125-3.125-8.188-3.125-11.313,0s-3.125,8.188,0,11.313L58.346,69.656z" fill="#ff9300"/><path d="M335.379,346.69l26.966,26.966c1.563,1.563,3.609,2.344,5.656,2.344s4.094-0.781,5.656-2.344   c3.125-3.125,3.125-8.188,0-11.313l-26.966-26.966L166.474,155.159L93.642,82.328c-3.125-3.125-8.188-3.125-11.313,0   s-3.125,8.188,0,11.313l72.831,72.831L335.379,346.69z" fill="#ffcf00"/><path d="M200.017,168.016c2.047,0,4.094-0.781,5.656-2.344v0c3.125-3.125,3.125-8.187,0-11.312   l-16.016-16.016c-3.125-3.125-8.188-3.125-11.313,0s-3.125,8.188,0,11.313l2.068,2.068l13.948,13.948   C195.924,167.234,197.97,168.016,200.017,168.016z" fill="#ff9300"/><path d="M218.338,189.648l142.294,142.294l33.714,33.714c1.563,1.563,3.609,2.344,5.656,2.344   s4.094-0.781,5.656-2.344c3.125-3.125,3.125-8.188,0-11.313L282.261,230.947l-52.611-52.611c-3.125-3.125-8.187-3.125-11.312,0h0   C215.213,181.461,215.213,186.523,218.338,189.648z" fill="#ffcf00"/><path d="M274.353,205.664c1.563,1.563,3.609,2.344,5.656,2.344s4.094-0.781,5.656-2.344   c3.125-3.125,3.125-8.188,0-11.313l-8.008-8.008c-3.125-3.125-8.188-3.125-11.313,0s-3.125,8.187,0,11.312L274.353,205.664z" fill="#ff9300"/><path d="M298.369,229.68l147.349,147.349c18.603,4.882,36.467,14.639,47.542,25.714   c0.746,0.746,1.467,1.508,2.168,2.282c-0.391-0.975-0.979-1.89-1.77-2.68L309.681,218.367c-3.125-3.125-8.188-3.125-11.313,0   c-0.492,0.492-0.897,1.035-1.234,1.607C295.33,223.041,295.735,227.046,298.369,229.68z" fill="#ffcf00"/><path d="M200.01,288.008c2.047,0,4.094-0.781,5.656-2.344c3.125-3.125,3.125-8.188,0-11.313l-8.008-8.008   c-3.125-3.125-8.188-3.125-11.313,0s-3.125,8.188,0,11.313l8.008,8.008C195.916,287.226,197.963,288.008,200.01,288.008z" fill="#ff9300"/><path d="M402.744,493.258c-11.071-11.074-20.829-28.938-25.713-47.541L229.681,298.367   c-2.633-2.633-6.639-3.039-9.705-1.233c-0.572,0.337-1.116,0.742-1.607,1.233c-3.125,3.125-3.125,8.188,0,11.312l183.976,183.977   c0.79,0.79,1.704,1.379,2.679,1.769c-0.157-0.143-0.308-0.297-0.464-0.441C403.945,494.425,403.338,493.852,402.744,493.258z" fill="#ffcf00"/><path d="M85.658,114.344c-3.125-3.125-8.188-3.125-11.313,0s-3.125,8.188,0,11.313l16.008,16.008   c1.563,1.563,3.609,2.344,5.656,2.344s4.094-0.781,5.656-2.344c3.125-3.125,3.125-8.188,0-11.313L85.658,114.344z" fill="#ff9300"/><path d="M360.002,408c2.047,0,4.094-0.781,5.656-2.344c3.125-3.125,3.125-8.188,0-11.313l-33.714-33.714   L151.726,180.411l-26.068-26.068c-3.125-3.125-8.188-3.125-11.313,0s-3.125,8.188,0,11.313l116.603,116.603l123.397,123.397   C355.908,407.219,357.955,408,360.002,408z" fill="#ffcf00"/><path d="M246.361,49.672c1.563,1.563,3.609,2.344,5.656,2.344s4.094-0.781,5.656-2.344   c3.125-3.125,3.125-8.188,0-11.313L221.658,2.344c-3.125-3.125-8.188-3.125-11.313,0s-3.125,8.188,0,11.313L246.361,49.672z" fill="#ff9300"/><path d="M319.161,122.472l84.109,84.109l11.075,11.075c1.563,1.563,3.609,2.344,5.656,2.344   s4.094-0.781,5.656-2.344c3.125-3.125,3.125-8.188,0-11.313l-11.075-11.075l-84.109-84.109l-48.816-48.816   c-3.125-3.125-8.188-3.125-11.313,0s-3.125,8.188,0,11.312L319.161,122.472z" fill="#ffcf00"/><path d="M310.338,73.648c1.563,1.563,3.609,2.344,5.656,2.344s4.094-0.781,5.656-2.344   c3.125-3.125,3.125-8.187,0-11.312l-39.992-39.992c-3.125-3.125-8.188-3.125-11.313,0s-3.125,8.188,0,11.313L310.338,73.648z" fill="#ff9300"/><path d="M458.548,221.859c14.088-0.071,30.222,7.592,39.109,16.484L345.666,86.352   c-3.125-3.125-8.188-3.125-11.313,0s-3.125,8.188,0,11.313l10.06,10.06l84.109,84.109L458.548,221.859z" fill="#ffcf00"/><path d="M276.002,116c2.047,0,4.094-0.781,5.656-2.344c3.125-3.125,3.125-8.188,0-11.313l-36-36   c-3.125-3.125-8.188-3.125-11.313,0s-3.125,8.187,0,11.312l36,36C271.908,115.219,273.955,116,276.002,116z" fill="#ff9300"/><path d="M432.261,252.947l-32.427-32.427l-84.109-84.109l-10.083-10.083c-3.125-3.125-8.188-3.125-11.313,0   s-3.125,8.188,0,11.313l148.016,148.016c0.469,0.469,0.985,0.859,1.528,1.187C437.49,278.707,432.703,265.4,432.261,252.947z" fill="#ffcf00"/><path d="M44.017,260.016c2.047,0,4.094-0.781,5.656-2.344c3.125-3.125,3.125-8.188,0-11.313l-36.016-36.016   c-3.125-3.125-8.188-3.125-11.313,0s-3.125,8.188,0,11.313l36.016,36.016C39.924,259.234,41.971,260.016,44.017,260.016z" fill="#ff9300"/><path d="M206.345,425.656c1.563,1.563,3.609,2.344,5.656,2.344s4.094-0.781,5.656-2.344   c3.125-3.125,3.125-8.187,0-11.312l-11.075-11.075l-84.109-84.109l-48.816-48.816c-3.125-3.125-8.188-3.125-11.313,0   s-3.125,8.188,0,11.313l48.816,48.816l84.109,84.109L206.345,425.656z" fill="#ffcf00"/><path d="M62.346,230.344c-3.125,3.125-3.125,8.188,0,11.313l39.992,39.992   c1.563,1.563,3.609,2.344,5.656,2.344s4.094-0.781,5.656-2.344c3.125-3.125,3.125-8.188,0-11.313l-39.992-39.992   C70.533,227.219,65.471,227.219,62.346,230.344z" fill="#ff9300"/><path d="M250.549,429.86c14.088-0.071,30.221,7.592,39.109,16.484c0.006,0.006,0.012,0.013,0.018,0.019   c-0.006-0.006-0.012-0.014-0.018-0.02L137.666,294.351c-3.125-3.125-8.188-3.125-11.313,0s-3.125,8.188,0,11.313l10.06,10.06   l84.109,84.109L250.549,429.86z" fill="#ffcf00"/><path d="M37.658,274.344c-3.125-3.125-8.188-3.125-11.313,0s-3.125,8.188,0,11.313l36,36   c1.563,1.563,3.609,2.344,5.656,2.344s4.094-0.781,5.656-2.344c3.125-3.125,3.125-8.188,0-11.313L37.658,274.344z" fill="#ff9300"/><path d="M224.261,460.947l-32.427-32.427l-84.109-84.109l-10.083-10.083c-3.125-3.125-8.188-3.125-11.313,0   s-3.125,8.188,0,11.313l148.016,148.016c0.468,0.468,0.984,0.858,1.527,1.186C229.489,486.706,224.702,473.399,224.261,460.947z" fill="#ffcf00"/><path d="M495.427,405.024c-0.701-0.773-1.422-1.535-2.168-2.282c2.891,2.892,5.411,6.013,7.631,9.276   c-9.672-6.986-20.901-11.012-32.392-11.85c-16.302-1.189-33.062,3.905-46.388,15.574c-24.266,21.256-28.834,57.068-12.114,83.663   c-1.864-1.379-3.689-2.835-5.437-4.421c0.156,0.145,0.307,0.298,0.464,0.441c12.158,11.029,27.567,16.543,42.977,16.543   c16.391,0,32.781-6.234,45.258-18.711C517.459,469.051,518.179,430.112,495.427,405.024z" fill="#d49e6c"/><path d="M445.718,377.028c-10.672-2.801-21.587-3.998-31.603-2.915   c-10.769,1.164-20.499,4.962-27.769,12.231c-7.27,7.27-11.068,16.999-12.232,27.768c-1.083,10.017,0.116,20.932,2.918,31.605   c4.884,18.603,14.642,36.467,25.713,47.541c0.594,0.594,1.201,1.168,1.816,1.727c1.748,1.587,3.573,3.042,5.437,4.421   c-16.72-26.595-12.151-62.407,12.114-83.663c13.326-11.669,30.086-16.763,46.388-15.574c11.491,0.838,22.72,4.864,32.392,11.85   c-2.221-3.264-4.74-6.384-7.631-9.276C482.185,391.668,464.321,381.91,445.718,377.028z" fill="#b68052"/><path d="M497.752,246.2c-9.088-4.808-19.723-6.673-29.434-4.281c-19.419,4.777-30.337,25.417-23.359,44.158   c0.456,1.228,1.001,2.484,1.604,3.755c-0.067-0.066-0.151-0.108-0.218-0.175c6.836,6.836,16.242,10.25,25.656,10.25   s18.82-3.414,25.656-10.25c13.194-13.187,13.651-35.982,1.379-49.84c3.07,3.498,5.269,7.583,6.744,11.912   C503.286,249.647,500.643,247.729,497.752,246.2z" fill="#d49e6c"/><path d="M458.548,221.859c-7.151,0.036-13.777,2.058-18.656,6.938c-5.821,5.821-7.965,14.74-7.631,24.15   c0.442,12.453,5.228,25.76,11.612,33.896c0.801,1.021,1.626,1.967,2.472,2.813c0.067,0.067,0.15,0.109,0.218,0.175   c-0.603-1.271-1.148-2.527-1.604-3.755c-6.979-18.741,3.94-39.381,23.359-44.158c9.711-2.392,20.346-0.526,29.434,4.281   c2.891,1.529,5.534,3.447,8.029,5.529c-1.475-4.33-3.674-8.414-6.744-11.912c-0.003-0.004-0.007-0.008-0.01-0.012   c-0.438-0.499-0.894-0.986-1.369-1.46C488.771,229.451,472.636,221.788,458.548,221.859z" fill="#b68052"/><path d="M297.781,459.729c-2.495-2.082-5.138-4-8.029-5.529c-9.088-4.808-19.723-6.673-29.434-4.281   c-19.419,4.777-30.337,25.417-23.359,44.158c0.456,1.228,1.001,2.484,1.604,3.755c-0.067-0.066-0.151-0.108-0.218-0.175   c6.836,6.836,16.242,10.25,25.656,10.25c9.414,0,18.82-3.414,25.656-10.25c13.194-13.187,13.651-35.982,1.379-49.84   C294.107,451.315,296.306,455.399,297.781,459.729z" fill="#d49e6c"/><path d="M236.959,494.077c-6.979-18.741,3.94-39.381,23.359-44.158c9.711-2.392,20.346-0.526,29.434,4.281   c2.891,1.529,5.534,3.447,8.029,5.529c-1.475-4.33-3.674-8.414-6.744-11.912c-0.003-0.004-0.007-0.008-0.01-0.012   c-0.438-0.499-0.894-0.986-1.369-1.46c-8.887-8.892-25.021-16.555-39.109-16.484c-7.151,0.036-13.777,2.058-18.657,6.938   c-5.821,5.821-7.965,14.74-7.631,24.149c0.441,12.453,5.228,25.759,11.611,33.895c0.802,1.022,1.627,1.968,2.473,2.815   c0.067,0.067,0.15,0.109,0.218,0.175C237.96,496.562,237.415,495.305,236.959,494.077z" fill="#b68052"/></g></defs><g fi:class="KUsePattern"><pattern id="pattern_L1_0" width="350" height="350" patternUnits="userSpaceOnUse"><use xlink:href="#L1_0" x="-350" y="-350"/><use xlink:href="#L1_0" x="0" y="-350"/><use xlink:href="#L1_0" x="350" y="-350"/><use xlink:href="#L1_0" x="-350" y="0"/><use xlink:href="#L1_0" x="0" y="0"/><use xlink:href="#L1_0" x="350" y="0"/><use xlink:href="#L1_0" x="-350" y="350"/><use xlink:href="#L1_0" x="0" y="350"/><use xlink:href="#L1_0" x="350" y="350"/></pattern><rect x="0" y="0" width="100%" height="100%" fill="url(#pattern_L1_0)"/></g><g fi:class="KUsePattern"><pattern id="pattern_L1_1" width="350" height="350" patternUnits="userSpaceOnUse"><use xlink:href="#L1_1" x="-350" y="-350"/><use xlink:href="#L1_1" x="0" y="-350"/><use xlink:href="#L1_1" x="350" y="-350"/><use xlink:href="#L1_1" x="-350" y="0"/><use xlink:href="#L1_1" x="0" y="0"/><use xlink:href="#L1_1" x="350" y="0"/><use xlink:href="#L1_1" x="-350" y="350"/><use xlink:href="#L1_1" x="0" y="350"/><use xlink:href="#L1_1" x="350" y="350"/></pattern><rect x="0" y="0" width="100%" height="100%" fill="url(#pattern_L1_1)"/></g><g fi:class="KUsePattern"><pattern id="pattern_L1_2" width="350" height="350" patternUnits="userSpaceOnUse"><use xlink:href="#L1_2" x="-350" y="-350"/><use xlink:href="#L1_2" x="0" y="-350"/><use xlink:href="#L1_2" x="350" y="-350"/><use xlink:href="#L1_2" x="-350" y="0"/><use xlink:href="#L1_2" x="0" y="0"/><use xlink:href="#L1_2" x="350" y="0"/><use xlink:href="#L1_2" x="-350" y="350"/><use xlink:href="#L1_2" x="0" y="350"/><use xlink:href="#L1_2" x="350" y="350"/></pattern><rect x="0" y="0" width="100%" height="100%" fill="url(#pattern_L1_2)"/></g><g fi:class="KUsePattern"><pattern id="pattern_L1_3" width="350" height="350" patternUnits="userSpaceOnUse"><use xlink:href="#L1_3" x="-350" y="-350"/><use xlink:href="#L1_3" x="0" y="-350"/><use xlink:href="#L1_3" x="350" y="-350"/><use xlink:href="#L1_3" x="-350" y="0"/><use xlink:href="#L1_3" x="0" y="0"/><use xlink:href="#L1_3" x="350" y="0"/><use xlink:href="#L1_3" x="-350" y="350"/><use xlink:href="#L1_3" x="0" y="350"/><use xlink:href="#L1_3" x="350" y="350"/></pattern><rect x="0" y="0" width="100%" height="100%" fill="url(#pattern_L1_3)"/></g><g fi:class="KUsePattern"><pattern id="pattern_L1_4" width="350" height="350" patternUnits="userSpaceOnUse"><use xlink:href="#L1_4" x="-350" y="-350"/><use xlink:href="#L1_4" x="0" y="-350"/><use xlink:href="#L1_4" x="350" y="-350"/><use xlink:href="#L1_4" x="-350" y="0"/><use xlink:href="#L1_4" x="0" y="0"/><use xlink:href="#L1_4" x="350" y="0"/><use xlink:href="#L1_4" x="-350" y="350"/><use xlink:href="#L1_4" x="0" y="350"/><use xlink:href="#L1_4" x="350" y="350"/></pattern><rect x="0" y="0" width="100%" height="100%" fill="url(#pattern_L1_4)"/></g></svg>